<svg width="192" height="192" viewBox="0 0 192 192" fill="none" xmlns="http://www.w3.org/2000/svg">
<path fill-rule="evenodd" clip-rule="evenodd" d="M96 192C149.019 192 192 149.019 192 96C192 42.9807 149.019 0 96 0C42.9807 0 0 42.9807 0 96C0 149.019 42.9807 192 96 192ZM107.598 21.4674C107.475 21.3275 104.834 17.764 101.729 13.5484C98.6235 9.33281 96.0401 5.88387 95.9881 5.88387C95.9358 5.88387 93.2782 9.43957 90.0823 13.7853L84.2712 21.6866L83.5242 21.1975C83.1136 20.9283 79.6161 18.4465 75.7523 15.6824C71.8884 12.9181 68.5597 10.5544 68.3556 10.4297C68.0915 10.268 67.1144 12.8835 64.9674 19.5014C63.1319 25.1583 62.2071 27.7607 61.731 28.5336C61.3991 28.5339 57.2316 27.2994 52.3216 25.7447L43.2 22.8563L43.1942 23.0862L43.0237 23.0317L42.8689 32.7032C42.7892 37.6774 42.6508 41.8778 42.5504 42.4851L32.8744 42.7081L23.0137 42.9354L23.1395 43.3297C23.0801 43.3406 23.0495 43.3511 23.0495 43.361C23.0495 43.5573 27.4194 57.5049 28.4512 60.6017L28.648 61.1924C28.6951 61.4025 28.7146 61.5284 28.7028 61.5585C28.6263 61.7539 24.4345 63.284 19.388 64.9585L10.2129 68.0026L10.904 68.9843C11.0833 69.2385 11.7525 70.1782 12.7015 71.5084C13.7673 73.0025 15.1857 74.9891 16.6588 77.0504C19.4438 80.9468 21.6077 84.2359 21.4675 84.3588C21.3275 84.4821 17.764 87.1232 13.5484 90.2285C9.33274 93.3336 5.88387 95.9168 5.88387 95.9688C5.88387 96.0213 9.43957 98.679 13.7853 101.875L21.6867 107.686L21.1974 108.433C20.9283 108.843 18.4465 112.341 15.6824 116.205C12.9182 120.069 10.5544 123.397 10.4296 123.602C10.3242 123.774 11.3989 124.249 13.9931 125.153L13.2947 125.159L21.0892 127.784L28.7036 130.348C28.7639 130.402 28.7921 130.449 28.7913 130.489C28.7901 130.554 28.7133 130.851 28.575 131.336L28.4512 131.708C27.5375 134.451 24.0105 145.688 23.2112 148.373L23.0317 148.933L23.0518 148.934C23.0503 148.941 23.0495 148.946 23.0495 148.949C23.0495 149.068 27.3955 149.26 32.7077 149.376C38.0196 149.492 42.444 149.665 42.54 149.761C42.6357 149.857 42.7837 154.287 42.8689 159.607L43.0237 169.278L52.0043 166.403C56.9437 164.821 61.1995 163.523 61.4619 163.518C61.8158 163.512 62.7185 165.911 64.9579 172.811C67.1249 179.488 68.0825 182.047 68.3519 181.883C68.5582 181.756 71.8884 179.392 75.7523 176.627C79.6161 173.863 83.1164 171.38 83.5307 171.108L84.2842 170.614L90.1012 178.542C95.6456 186.098 95.9423 186.443 96.443 185.905C96.732 185.596 99.3073 182.137 102.166 178.219C105.024 174.302 107.468 170.981 107.596 170.839C107.724 170.696 111.301 173.075 115.545 176.124C119.788 179.173 123.417 181.764 123.608 181.882C123.756 181.974 124.27 180.79 125.156 178.314L125.159 178.662L127.784 170.868L129.637 165.367C130.045 164.287 130.323 163.637 130.399 163.607C130.594 163.53 134.864 164.777 139.888 166.377L149.022 169.286L149.048 168.168C149.158 166.709 149.289 163.254 149.376 159.249C149.481 154.465 149.631 150.4 149.73 149.57L152.147 149.533C153.616 149.51 158.031 149.406 161.959 149.301L169.101 149.11L169.046 148.937L169.278 148.933L166.403 139.953C164.821 135.013 163.523 130.758 163.518 130.495V130.492C164.099 130.166 167.301 128.986 171.095 127.709L178.662 125.159L178.339 125.156C180.938 124.25 181.99 123.781 181.883 123.605C181.756 123.399 179.391 120.069 176.627 116.205C173.863 112.341 171.38 108.841 171.108 108.426L170.614 107.673L178.542 101.856C186.098 96.3115 186.443 96.0148 185.906 95.514C185.596 95.2251 182.137 92.6498 178.219 89.7915C174.302 86.9332 170.981 84.4895 170.839 84.3614C170.696 84.2329 173.075 80.6557 176.124 76.4121C179.173 72.1687 181.764 68.5405 181.882 68.3495C182.025 68.1172 179.059 66.9947 172.921 64.9582C167.875 63.2841 163.683 61.7539 163.607 61.5585C163.53 61.3629 164.777 57.0927 166.377 52.069L169.286 42.9351L159.43 42.7078L149.574 42.4808L149.533 39.8102C149.51 38.3413 149.406 33.926 149.301 29.998L149.11 22.8563L139.988 25.7447C134.971 27.3333 130.73 28.5874 130.562 28.5318C130.395 28.4757 129.111 25.0246 127.709 20.8626L125.159 13.2947L125.155 13.8301L123.954 10.2129L122.973 10.904C122.433 11.2846 118.803 13.8741 114.907 16.6588C111.01 19.4437 107.721 21.6077 107.598 21.4674Z" fill="#E20613"/>
<path fill-rule="evenodd" clip-rule="evenodd" d="M171.14 66.408C169.928 66.2249 168.597 65.795 165.634 64.8126C162.738 63.8527 160.32 63.0258 160.26 62.9751C160.201 62.9243 161.355 59.0762 162.825 54.4236C164.295 49.7713 165.573 45.721 165.664 45.4228C165.82 44.9149 165.238 44.8809 156.412 44.8809H146.994L146.792 40.9325C146.682 38.761 146.59 34.4258 146.59 31.2994C146.589 26.6756 146.511 25.6443 146.174 25.7737C145.128 26.1749 128.954 31.2551 128.722 31.2551C128.578 31.2551 127.142 27.2834 125.53 22.4293C123.919 17.5752 122.469 13.6035 122.308 13.6035C122.147 13.6035 118.637 16.0304 114.508 18.9965L107.001 24.3899L101.479 16.8394C98.4414 12.6865 95.8256 9.32772 95.6658 9.3755C95.506 9.42283 92.9592 12.7277 90.0068 16.7198C87.0539 20.7115 84.5106 24.0214 84.3552 24.0746C84.1993 24.1278 80.8295 21.843 76.8662 18.9971C72.9026 16.1512 69.4602 13.8085 69.2162 13.7905C68.9035 13.7678 67.9224 16.3008 65.8851 22.3927L65.6613 23.0604C65.4386 23.767 65.1602 24.6111 64.8127 25.6591C63.8527 28.5549 63.0259 30.9729 62.9751 31.0327C62.9741 31.0339 62.9715 31.0346 62.9674 31.0348C62.9568 31.0352 62.9363 31.0327 62.9063 31.0271C62.8668 31.1263 62.8414 31.1828 62.8313 31.1928C62.7085 31.3156 47.8178 26.7537 45.1235 25.7689C44.9001 26.2821 44.881 28.266 44.881 34.8811V44.2992L44.5534 44.316L44.5498 44.7261L35.0272 44.8079C30.682 44.8454 26.9952 44.8996 25.8677 44.9399C25.7706 44.9895 25.7467 45.0487 25.7739 45.1195C26.1749 46.1647 31.2552 62.3396 31.2552 62.5715C31.2552 62.5835 31.2273 62.6046 31.1735 62.6341L31.2901 62.997L25.9974 64.7641C23.2066 65.6957 21.8649 66.1361 20.6989 66.3427C16.6658 67.7084 13.6035 68.8438 13.6035 68.9852C13.6035 69.1466 16.0305 72.6564 18.9966 76.7849L24.3899 84.2919L16.8394 89.8144C12.6866 92.8517 9.32787 95.4675 9.3755 95.6273C9.4229 95.7872 12.7278 98.3338 16.7198 101.286C20.7116 104.239 24.0214 106.783 24.0747 106.938C24.128 107.094 21.8431 110.464 18.9972 114.427C16.1513 118.39 13.8086 121.833 13.7906 122.077C13.768 122.39 16.3008 123.371 22.3928 125.408C27.1417 126.996 31.1015 128.37 31.1929 128.462C31.3162 128.585 26.7227 143.577 25.759 146.197C25.6494 146.494 27.7472 146.598 35.1722 146.661L44.7261 146.743L44.8079 156.266C44.851 161.263 44.9164 165.389 44.957 165.754C44.9586 165.758 44.9602 165.763 44.9618 165.767C44.9633 165.771 44.9648 165.775 44.9662 165.779C45.1081 165.741 49.1407 164.453 54.0165 162.887L62.9971 160.003L64.7641 165.296C65.7065 168.119 66.1463 169.459 66.3499 170.635C68.044 175.639 68.9305 177.876 69.2073 177.857C69.446 177.84 72.8933 175.499 76.8677 172.654C80.8425 169.809 84.2179 167.524 84.3691 167.575C84.5205 167.626 87.0527 170.932 89.9965 174.922C92.94 178.911 95.4853 182.215 95.6525 182.264C95.8194 182.313 98.4411 178.963 101.478 174.82L107.001 167.288L114.513 172.665C118.645 175.622 122.155 178.042 122.313 178.042C122.471 178.042 123.919 174.071 125.53 169.216C127.142 164.362 128.572 160.391 128.71 160.391C128.714 160.391 128.726 160.393 128.746 160.398C128.759 160.401 128.775 160.405 128.794 160.41C128.862 160.282 128.91 160.214 128.937 160.214C129.203 160.214 144.975 165.174 146.269 165.664C146.444 164.921 146.566 162.122 146.667 156.666C146.723 153.649 146.806 150.922 146.888 149.164C146.899 148.886 146.911 148.649 146.924 148.457C146.969 147.648 147.012 147.166 147.05 147.129C147.052 147.126 147.057 147.124 147.064 147.121C147.07 147.119 147.078 147.116 147.087 147.114L147.159 146.588H156.595C162.604 146.588 165.05 146.534 165.703 146.352L165.609 146.043C165.55 145.853 165.184 144.694 164.646 142.991C164.137 141.383 163.474 139.291 162.771 137.074C161.323 132.51 160.19 128.732 160.254 128.677C160.264 128.668 160.346 128.636 160.489 128.583C160.47 128.499 160.463 128.452 160.468 128.446C160.551 128.363 164.504 126.996 169.253 125.408C175.229 123.409 177.878 122.387 177.857 122.086C177.84 121.847 175.499 118.4 172.654 114.425C169.809 110.451 167.524 107.075 167.575 106.924C167.626 106.773 170.932 104.24 174.922 101.297C178.911 98.3532 182.215 95.8079 182.264 95.6406C182.313 95.4737 178.963 92.852 174.82 89.8147L167.288 84.2925L172.665 76.7801C175.622 72.6483 178.042 69.1384 178.042 68.9802C178.042 68.8434 175.077 67.7438 171.14 66.408ZM165.345 95.668C165.345 134.15 134.15 165.345 95.6681 165.345C57.1863 165.345 25.9906 134.15 25.9906 95.668C25.9906 57.1862 57.1863 25.9906 95.6681 25.9906C134.15 25.9906 165.345 57.1862 165.345 95.668Z" fill="#FFEA00"/>
<path fill-rule="evenodd" clip-rule="evenodd" d="M162.646 96.1353C162.646 132.868 132.868 162.646 96.1353 162.646C59.4027 162.646 29.625 132.868 29.625 96.1353C29.625 59.4027 59.4027 29.625 96.1353 29.625C132.868 29.625 162.646 59.4027 162.646 96.1353ZM49.5614 64.7167C56.4594 54.5735 63.722 46.957 70.8867 41.6555C72.2382 40.6556 71.7969 40.785 68.6703 42.3068C58.5851 47.2155 51.0219 53.5987 44.2684 64.598C37.8501 75.0514 36.5561 84.4137 35.4386 94.7418C35.4386 94.7418 42.2745 75.4315 49.5614 64.7167ZM130.157 146.096C137.462 141.182 142.513 135.62 148.08 127.061C153.758 118.332 155.843 110.6 158.092 102.26L158.092 102.259C158.389 101.159 158.689 100.048 159 98.9224C159 98.9224 149.951 117.481 142.109 128.026C135.518 136.889 129.188 144.318 123.147 149.01C121.743 150.101 120.648 151.047 120.714 151.112C120.95 151.348 127.607 147.811 130.157 146.096Z" fill="url(#paint0_radial)"/>
<path fill-rule="evenodd" clip-rule="evenodd" d="M107.714 21.5835C107.591 21.4436 104.95 17.8801 101.845 13.6645C98.7396 9.44894 96.1563 6 96.1043 6C96.0519 6 93.3943 9.5557 90.1984 13.9015L84.3873 21.8028L83.6404 21.3136C83.2297 21.0445 79.7323 18.5627 75.8684 15.7985C72.0045 13.0343 68.6758 10.6706 68.4718 10.5458C68.2076 10.3842 67.2305 12.9996 65.0835 19.6175C63.2481 25.2744 62.3232 27.8769 61.8472 28.6497C61.5153 28.65 57.3477 27.4155 52.4377 25.8608L43.3161 22.9724L43.3103 23.2024L43.1398 23.1478L42.985 32.8193C42.9054 37.7935 42.7669 41.9939 42.6665 42.6012L32.9906 42.8242L23.1298 43.0515L23.2556 43.4459C23.1962 43.4568 23.1656 43.4672 23.1656 43.4772C23.1656 43.6734 27.5355 57.621 28.5673 60.7178L28.7641 61.3086C28.8113 61.5186 28.8307 61.6446 28.8189 61.6746C28.7424 61.87 24.5506 63.4001 19.5041 65.0746L10.329 68.1187L11.0202 69.1004C11.1994 69.3546 11.8687 70.2944 12.8176 71.6245C13.8834 73.1187 15.3018 75.1052 16.7749 77.1665C19.5599 81.0629 21.7238 84.352 21.5836 84.4749C21.4437 84.5982 17.8802 87.2394 13.6645 90.3446C9.44887 93.4497 6 96.033 6 96.085C6 96.1375 9.5557 98.7951 13.9014 101.991L21.8028 107.802L21.3135 108.549C21.0445 108.96 18.5627 112.457 15.7985 116.321C13.0343 120.185 10.6706 123.513 10.5457 123.718C10.4403 123.89 11.5151 124.365 14.1092 125.27L13.4108 125.275L21.2053 127.9L28.8197 130.464C28.88 130.519 28.9082 130.565 28.9074 130.605C28.9062 130.67 28.8294 130.968 28.6911 131.452L28.5673 131.824C27.6536 134.567 24.1266 145.804 23.3273 148.489L23.1478 149.049L23.1679 149.05C23.1664 149.057 23.1656 149.062 23.1656 149.065C23.1656 149.184 27.5116 149.376 32.8238 149.492C38.1358 149.608 42.5601 149.781 42.6561 149.877C42.7518 149.973 42.8999 154.403 42.985 159.723L43.1398 169.394L52.1205 166.519C57.0598 164.937 61.3157 163.639 61.578 163.634C61.9319 163.628 62.8347 166.027 65.074 172.927C67.2411 179.604 68.1986 182.163 68.468 181.999C68.6743 181.872 72.0045 179.508 75.8684 176.743C79.7323 173.979 83.2325 171.496 83.6469 171.224L84.4003 170.73L90.2173 178.658C95.7618 186.214 96.0584 186.559 96.5592 186.022C96.8481 185.712 99.4234 182.253 102.282 178.335C105.14 174.418 107.584 171.097 107.712 170.955C107.84 170.812 111.417 173.191 115.661 176.24C119.905 179.289 123.533 181.88 123.724 181.998C123.873 182.09 124.387 180.906 125.272 178.43L125.275 178.779L127.9 170.984L129.753 165.483C130.162 164.403 130.439 163.753 130.515 163.723C130.71 163.646 134.981 164.893 140.004 166.493L149.138 169.402L149.164 168.284C149.274 166.825 149.405 163.37 149.492 159.365C149.597 154.581 149.747 150.516 149.846 149.686L152.263 149.649C153.732 149.626 158.147 149.522 162.075 149.417L169.217 149.226L169.162 149.053L169.394 149.049L166.519 140.069C164.937 135.129 163.639 130.874 163.635 130.611V130.608C164.215 130.282 167.418 129.103 171.211 127.825L178.779 125.275L178.455 125.272C181.054 124.366 182.106 123.897 181.999 123.721C181.872 123.515 179.508 120.185 176.743 116.321C173.979 112.457 171.496 108.957 171.224 108.542L170.73 107.789L178.658 101.972C186.214 96.4276 186.559 96.131 186.022 95.6301C185.712 95.3412 182.253 92.7659 178.336 89.9076C174.418 87.0493 171.097 84.6056 170.955 84.4775C170.812 84.349 173.191 80.7718 176.24 76.5283C179.289 72.2849 181.88 68.6566 181.998 68.4656C182.141 68.2334 179.175 67.1108 173.037 65.0743C167.991 63.4003 163.8 61.87 163.723 61.6746C163.646 61.479 164.893 57.2088 166.493 52.1852L169.402 43.0512L159.546 42.8239L149.69 42.597L149.649 39.9263C149.626 38.4575 149.522 34.0421 149.417 30.1142L149.226 22.9724L140.104 25.8608C135.087 27.4494 130.846 28.7035 130.679 28.6479C130.511 28.5918 129.227 25.1407 127.825 20.9787L125.275 13.4108L125.271 13.9462L124.071 10.329L123.089 11.0202C122.549 11.4008 118.919 13.9902 115.023 16.7749C111.126 19.5599 107.837 21.7238 107.714 21.5835ZM171.588 66.8561C170.376 66.673 169.045 66.2431 166.082 65.2607C163.186 64.3009 160.768 63.4739 160.709 63.4232C160.649 63.3724 161.803 59.5243 163.273 54.8717C164.743 50.2195 166.021 46.1692 166.112 45.871C166.268 45.3631 165.687 45.329 156.86 45.329H147.442L147.24 41.3806C147.13 39.2091 147.038 34.8739 147.038 31.7475C147.037 27.1237 146.959 26.0924 146.622 26.2219C145.576 26.623 129.402 31.7032 129.17 31.7032C129.026 31.7032 127.59 27.7316 125.979 22.8774C124.367 18.0233 122.917 14.0516 122.756 14.0516C122.595 14.0516 119.085 16.4785 114.956 19.4447L107.449 24.838L101.927 17.2875C98.8895 13.1347 96.2737 9.77586 96.1139 9.82364C95.954 9.87097 93.4073 13.1758 90.4548 17.1679C87.502 21.1597 84.9587 24.4695 84.8032 24.5227C84.6474 24.576 81.2775 22.2912 77.3143 19.4453C73.3507 16.5993 69.9083 14.2567 69.6643 14.2387C69.3516 14.216 68.3705 16.7489 66.3331 22.8408L66.1094 23.5086C65.8867 24.2152 65.6083 25.0592 65.2608 26.1073C64.3008 29.0031 63.474 31.4211 63.4232 31.4808C63.4221 31.482 63.4196 31.4828 63.4154 31.4829C63.4049 31.4834 63.3844 31.4808 63.3544 31.4752C63.3148 31.5744 63.2894 31.6309 63.2794 31.6409C63.1566 31.7637 48.2658 27.2019 45.5716 26.217C45.3482 26.7302 45.329 28.7141 45.329 35.3292V44.7473L45.0014 44.7641L44.9979 45.1742L35.4753 45.256C31.1301 45.2935 27.4433 45.3478 26.3158 45.388C26.2187 45.4376 26.1948 45.4969 26.222 45.5676C26.623 46.6128 31.7032 62.7877 31.7032 63.0197C31.7032 63.0316 31.6754 63.0528 31.6216 63.0823L31.7382 63.4452L26.4454 65.2122C23.6547 66.1438 22.313 66.5843 21.147 66.7908C17.1138 68.1566 14.0516 69.292 14.0516 69.4334C14.0516 69.5947 16.4785 73.1046 19.4447 77.2331L24.838 84.74L17.2874 90.2625C13.1347 93.2999 9.77593 95.9156 9.82356 96.0755C9.87097 96.2353 13.1759 98.782 17.1679 101.734C21.1597 104.687 24.4695 107.231 24.5227 107.386C24.576 107.542 22.2912 110.912 19.4453 114.875C16.5993 118.839 14.2567 122.281 14.2387 122.525C14.2161 122.838 16.7489 123.819 22.8409 125.856C27.5898 127.444 31.5496 128.819 31.641 128.91C31.7642 129.033 27.1708 144.025 26.2071 146.645C26.0974 146.942 28.1952 147.046 35.6203 147.109L45.1742 147.191L45.2559 156.714C45.2991 161.711 45.3645 165.837 45.4051 166.202C45.4067 166.206 45.4083 166.211 45.4099 166.215C45.4114 166.219 45.4128 166.223 45.4143 166.227C45.5562 166.189 49.5888 164.901 54.4645 163.335L63.4452 160.451L65.2122 165.744C66.1545 168.567 66.5944 169.907 66.7979 171.083C68.4921 176.087 69.3786 178.324 69.6553 178.305C69.8941 178.288 73.3414 175.947 77.3158 173.102C81.2906 170.257 84.666 167.972 84.8171 168.023C84.9686 168.074 87.5008 171.38 90.4446 175.37C93.3881 179.359 95.9333 182.663 96.1006 182.712C96.2674 182.761 98.8892 179.411 101.927 175.268L107.449 167.736L114.961 173.113C119.093 176.071 122.603 178.49 122.761 178.49C122.919 178.49 124.367 174.519 125.979 169.665C127.59 164.81 129.02 160.839 129.158 160.839C129.162 160.839 129.174 160.841 129.194 160.846C129.207 160.849 129.223 160.853 129.243 160.859C129.31 160.731 129.358 160.662 129.385 160.662C129.651 160.662 145.423 165.622 146.717 166.112C146.892 165.369 147.014 162.57 147.115 157.115C147.172 154.097 147.254 151.37 147.336 149.612C147.347 149.335 147.359 149.097 147.372 148.905C147.417 148.096 147.46 147.615 147.498 147.577C147.5 147.574 147.505 147.572 147.512 147.569C147.518 147.567 147.526 147.565 147.535 147.562L147.607 147.037H157.043C163.053 147.037 165.498 146.982 166.151 146.8L166.057 146.492C165.998 146.302 165.632 145.142 165.094 143.44C164.585 141.831 163.922 139.739 163.219 137.522C161.771 132.958 160.639 129.18 160.702 129.125C160.713 129.116 160.794 129.084 160.937 129.031C160.918 128.947 160.911 128.9 160.916 128.894C160.999 128.811 164.952 127.444 169.701 125.856C175.678 123.858 178.326 122.835 178.305 122.534C178.288 122.295 175.947 118.848 173.102 114.874C170.257 110.899 167.972 107.523 168.023 107.372C168.074 107.221 171.38 104.689 175.37 101.745C179.359 98.8013 182.663 96.256 182.712 96.0888C182.761 95.9218 179.411 93.3001 175.268 90.2628L167.736 84.7406L173.113 77.2282C176.071 73.0964 178.49 69.5865 178.49 69.4284C178.49 69.2915 175.525 68.1919 171.588 66.8561ZM165.794 96.1161C165.794 134.598 134.598 165.794 96.1161 165.794C57.6344 165.794 26.4387 134.598 26.4387 96.1161C26.4387 57.6343 57.6344 26.4387 96.1161 26.4387C134.598 26.4387 165.794 57.6343 165.794 96.1161ZM162.626 96.1161C162.626 132.849 132.849 162.626 96.1161 162.626C59.3835 162.626 29.6058 132.849 29.6058 96.1161C29.6058 59.3835 59.3835 29.6058 96.1161 29.6058C132.849 29.6058 162.626 59.3835 162.626 96.1161ZM49.5422 64.6975C56.4401 54.5543 63.7028 46.9378 70.8675 41.6363C72.219 40.6364 71.7776 40.7658 68.6511 42.2876C58.5659 47.1963 51.0026 53.5795 44.2492 64.5788C37.8309 75.0322 36.5369 84.3945 35.4194 94.7226C35.4194 94.7226 42.2553 75.4123 49.5422 64.6975ZM130.138 146.077C137.443 141.163 142.493 135.6 148.061 127.041C153.739 118.313 155.824 110.58 158.073 102.24L158.073 102.24C158.37 101.14 158.67 100.029 158.981 98.9032C158.981 98.9032 149.931 117.462 142.09 128.007C135.499 136.87 129.169 144.299 123.127 148.991C121.724 150.081 120.629 151.027 120.695 151.093C120.931 151.329 127.588 147.792 130.138 146.077Z" fill="white"/>
<defs>
<radialGradient id="paint0_radial" cx="0" cy="0" r="1" gradientUnits="userSpaceOnUse" gradientTransform="translate(96.1353 96.1353) rotate(90) scale(66.5103)">
<stop offset="0.921875" stop-color="#FFEA00"/>
<stop offset="1" stop-color="#FFC93D"/>
</radialGradient>
</defs>
</svg>
