<svg width="48" height="48" viewBox="0 0 48 48" fill="none" xmlns="http://www.w3.org/2000/svg">
<circle cx="24" cy="24" r="24" fill="white"/>
<circle cx="23.9999" cy="24" r="22.08" fill="#FF0613"/>
<path d="M23.9998 4.8L27.1901 12.0936L33.5998 7.37231L32.7159 15.2839L40.6275 14.4L35.9062 20.8097L43.1998 24L35.9062 27.1903L40.6275 33.6L32.7159 32.7161L33.5998 40.6277L27.1901 35.9064L23.9998 43.2L20.8095 35.9064L14.3998 40.6277L15.2837 32.7161L7.37212 33.6L12.0934 27.1903L4.7998 24L12.0934 20.8097L7.37212 14.4L15.2837 15.2839L14.3998 7.37231L20.8095 12.0936L23.9998 4.8Z" fill="#FFEA01" stroke="white"/>
<g filter="url(#filter0_ii_515_45)">
<circle cx="24" cy="24" r="11.52" fill="#FFEA01"/>
</g>
<circle cx="24" cy="24" r="10.52" stroke="white" stroke-width="2"/>
<defs>
<filter id="filter0_ii_515_45" x="12.48" y="8.48" width="23.04" height="31.04" filterUnits="userSpaceOnUse" color-interpolation-filters="sRGB">
<feFlood flood-opacity="0" result="BackgroundImageFix"/>
<feBlend mode="normal" in="SourceGraphic" in2="BackgroundImageFix" result="shape"/>
<feColorMatrix in="SourceAlpha" type="matrix" values="0 0 0 0 0 0 0 0 0 0 0 0 0 0 0 0 0 0 127 0" result="hardAlpha"/>
<feOffset dy="4"/>
<feGaussianBlur stdDeviation="2"/>
<feComposite in2="hardAlpha" operator="arithmetic" k2="-1" k3="1"/>
<feColorMatrix type="matrix" values="0 0 0 0 0.491667 0 0 0 0 0.387106 0 0 0 0 0.0163889 0 0 0 0.75 0"/>
<feBlend mode="normal" in2="shape" result="effect1_innerShadow_515_45"/>
<feColorMatrix in="SourceAlpha" type="matrix" values="0 0 0 0 0 0 0 0 0 0 0 0 0 0 0 0 0 0 127 0" result="hardAlpha"/>
<feOffset dy="-4"/>
<feGaussianBlur stdDeviation="2"/>
<feComposite in2="hardAlpha" operator="arithmetic" k2="-1" k3="1"/>
<feColorMatrix type="matrix" values="0 0 0 0 0.490196 0 0 0 0 0.388235 0 0 0 0 0.0156863 0 0 0 0.75 0"/>
<feBlend mode="normal" in2="effect1_innerShadow_515_45" result="effect2_innerShadow_515_45"/>
</filter>
</defs>
</svg>
