<svg width="256" height="256" viewBox="0 0 256 256" fill="none" xmlns="http://www.w3.org/2000/svg">
<path fill-rule="evenodd" clip-rule="evenodd" d="M128 256C198.692 256 256 198.692 256 128C256 57.3076 198.692 0 128 0C57.3076 0 0 57.3076 0 128C0 198.692 57.3076 256 128 256ZM143.464 28.6232C143.3 28.4367 139.778 23.6853 135.638 18.0645C131.498 12.4438 128.054 7.84516 127.984 7.84516C127.914 7.84516 124.371 12.5861 120.11 18.3804L112.362 28.9155L111.366 28.2633C110.818 27.9044 106.155 24.5954 101.003 20.9099C95.8512 17.2242 91.4129 14.0726 91.1408 13.9062C90.7886 13.6907 89.4859 17.178 86.6232 26.0018C84.1759 33.5444 82.9427 37.0143 82.3081 38.0448C81.8655 38.0452 76.3088 36.3992 69.7621 34.3262L57.6 30.475L57.5922 30.7817L57.3649 30.7089L57.1585 43.6042C57.0523 50.2365 56.8677 55.8371 56.7339 56.6468L43.8326 56.9442L30.6849 57.2472L30.8526 57.773C30.7735 57.7875 30.7327 57.8014 30.7327 57.8147C30.7327 58.0764 36.5592 76.6732 37.9349 80.8022L38.1973 81.5899C38.2602 81.87 38.2861 82.0379 38.2704 82.078C38.1684 82.3385 32.5793 84.3786 25.8506 86.6113L13.6171 90.6702L14.5387 91.979C14.7777 92.3179 15.6701 93.571 16.9353 95.3446C18.3564 97.3367 20.2476 99.9855 22.2117 102.734C25.925 107.929 28.8103 112.315 28.6233 112.478C28.4367 112.643 23.6854 116.164 18.0645 120.305C12.4436 124.445 7.84516 127.889 7.84516 127.958C7.84516 128.028 12.5861 131.572 18.3803 135.833L28.9156 143.581L28.2632 144.577C27.9044 145.125 24.5954 149.788 20.9099 154.94C17.2243 160.092 14.0726 164.53 13.9061 164.802C13.7656 165.031 15.1986 165.665 18.6575 166.871L17.7262 166.878L28.119 170.379L38.2715 173.798C38.3518 173.87 38.3894 173.932 38.3884 173.986C38.3868 174.071 38.2844 174.469 38.1 175.115L37.9349 175.611C36.7166 179.267 32.014 194.25 30.9483 197.83L30.7089 198.578L30.7357 198.578C30.7337 198.588 30.7327 198.595 30.7327 198.598C30.7327 198.757 36.5273 199.014 43.6103 199.168C50.6928 199.323 56.5919 199.554 56.72 199.681C56.8476 199.809 57.045 205.716 57.1585 212.809L57.3649 225.704L69.3391 221.87C75.9249 219.761 81.5994 218.031 81.9492 218.024C82.4211 218.016 83.6247 221.215 86.6105 230.415C89.4999 239.318 90.7766 242.73 91.1359 242.51C91.4109 242.342 95.8512 239.189 101.003 235.503C106.155 231.818 110.822 228.506 111.374 228.144L112.379 227.486L120.135 238.056C127.528 248.131 127.923 248.591 128.591 247.874C128.976 247.461 132.41 242.849 136.221 237.626C140.032 232.403 143.29 227.974 143.461 227.785C143.632 227.595 148.402 230.766 154.06 234.832C159.718 238.897 164.555 242.351 164.81 242.509C165.009 242.632 165.694 241.053 166.875 237.751L166.878 238.217L170.379 227.824L172.849 220.489C173.394 219.049 173.764 218.182 173.865 218.143C174.126 218.04 179.819 219.702 186.517 221.835L198.696 225.715L198.73 224.224C198.877 222.279 199.052 217.672 199.168 212.332C199.307 205.953 199.508 200.534 199.64 199.427L202.863 199.377C204.821 199.347 210.708 199.208 215.945 199.068L225.468 198.813L225.395 198.583L225.704 198.578L221.87 186.604C219.762 180.018 218.031 174.343 218.025 173.994V173.99C218.798 173.555 223.069 171.982 228.126 170.278L238.217 166.878L237.785 166.875C241.25 165.666 242.653 165.041 242.51 164.807C242.342 164.532 239.189 160.092 235.503 154.94C231.818 149.788 228.506 145.121 228.144 144.568L227.486 143.564L238.056 135.808C248.131 128.415 248.59 128.02 247.874 127.352C247.461 126.967 242.849 123.533 237.626 119.722C232.403 115.911 227.974 112.653 227.785 112.482C227.595 112.31 230.766 107.541 234.832 101.883C238.897 96.225 242.352 91.3873 242.509 91.1327C242.7 90.823 238.745 89.3262 230.562 86.6109C223.833 84.3788 218.245 82.3385 218.143 82.078C218.04 81.8171 219.702 76.1236 221.836 69.4254L225.715 57.2468L212.573 56.9437L199.432 56.6411L199.377 53.0802C199.347 51.1218 199.208 45.2347 199.068 39.9974L198.813 30.475L186.651 34.3262C179.962 36.4444 174.306 38.1165 174.083 38.0423C173.86 37.9675 172.148 33.3661 170.278 27.8167L166.878 17.7262L166.873 18.4401L165.273 13.6171L163.964 14.5387C163.244 15.0462 158.404 18.4988 153.209 22.2117C148.014 25.925 143.628 28.8103 143.464 28.6232Z" fill="#E20613"/>
<path fill-rule="evenodd" clip-rule="evenodd" d="M228.187 88.544C226.57 88.2999 224.796 87.7267 220.845 86.4168C216.984 85.137 213.76 84.0343 213.681 83.9668C213.601 83.8991 215.139 78.7682 217.1 72.5648C219.06 66.3618 220.764 60.9613 220.885 60.5638C221.093 59.8866 220.318 59.8412 208.549 59.8412H195.992L195.723 54.5767C195.576 51.6813 195.454 45.9011 195.453 41.7325C195.452 35.5674 195.348 34.1924 194.898 34.365C193.505 34.8999 171.938 41.6735 171.629 41.6735C171.437 41.6735 169.522 36.3779 167.374 29.9057C165.226 23.4335 163.292 18.138 163.077 18.138C162.862 18.138 158.182 21.3739 152.677 25.3287L142.668 32.5198L135.305 22.4525C131.255 16.9154 127.768 12.437 127.554 12.5007C127.341 12.5638 123.946 16.9702 120.009 22.293C116.072 27.6154 112.681 32.0285 112.474 32.0995C112.266 32.1704 107.773 29.1241 102.488 25.3295C97.2035 21.5349 92.6137 18.4114 92.2883 18.3874C91.8713 18.3571 90.5633 21.7343 87.8467 29.8569L87.5485 30.7472C87.2515 31.6894 86.8803 32.8148 86.417 34.2122C85.137 38.0733 84.0345 41.2972 83.9668 41.3769C83.9654 41.3785 83.962 41.3795 83.9565 41.3797C83.9425 41.3803 83.9151 41.3769 83.8751 41.3694C83.8223 41.5017 83.7885 41.5771 83.7751 41.5904C83.6114 41.7541 63.757 35.6716 60.1647 34.3585C59.8668 35.0428 59.8413 37.688 59.8413 46.5081V59.0656L59.4045 59.088L59.3998 59.6347L46.703 59.7438C40.9093 59.7938 35.9936 59.8662 34.4903 59.9198C34.3608 59.9859 34.329 60.065 34.3652 60.1593C34.8999 61.5529 41.6736 83.1194 41.6736 83.4287C41.6736 83.4446 41.6365 83.4728 41.5647 83.5122L41.7201 83.996L34.6632 86.3521C30.9422 87.5942 29.1532 88.1815 27.5986 88.4569C22.221 90.2779 18.1381 91.7918 18.1381 91.9803C18.1381 92.1954 21.374 96.8753 25.3288 102.38L32.5199 112.389L22.4525 119.752C16.9155 123.802 12.4372 127.29 12.5007 127.503C12.5639 127.716 16.9704 131.112 22.2931 135.048C27.6155 138.986 32.0286 142.377 32.0996 142.584C32.1706 142.792 29.1242 147.285 25.3296 152.569C21.535 157.854 18.4115 162.444 18.3875 162.769C18.3573 163.186 21.7344 164.494 29.8571 167.211C36.189 169.328 41.4687 171.161 41.5906 171.282C41.7549 171.447 35.6303 191.436 34.3453 194.929C34.1992 195.326 36.9962 195.464 46.8963 195.548L59.6348 195.658L59.7438 208.355C59.8014 215.017 59.8886 220.519 59.9427 221.005C59.9448 221.011 59.9469 221.017 59.9491 221.023C59.951 221.028 59.953 221.033 59.955 221.039C60.1441 220.988 65.5209 219.27 72.0219 217.183L83.9961 213.337L86.3522 220.394C87.6086 224.159 88.1951 225.946 88.4665 227.513C90.7254 234.186 91.9073 237.168 92.2764 237.142C92.5947 237.12 97.1911 233.998 102.49 230.205C107.79 226.412 112.291 223.365 112.492 223.433C112.694 223.501 116.07 227.909 119.995 233.229C123.92 238.548 127.314 242.953 127.537 243.018C127.759 243.084 131.255 238.618 135.305 233.094L142.668 223.051L152.684 230.22C158.193 234.163 162.873 237.39 163.084 237.39C163.295 237.39 165.226 232.094 167.374 225.622C169.522 219.15 171.43 213.854 171.613 213.854C171.619 213.854 171.635 213.857 171.661 213.864C171.678 213.868 171.7 213.873 171.726 213.881C171.815 213.71 171.88 213.619 171.916 213.619C172.271 213.619 193.3 220.232 195.025 220.886C195.259 219.895 195.421 216.162 195.556 208.889C195.631 204.866 195.742 201.229 195.851 198.885C195.866 198.515 195.882 198.199 195.898 197.943C195.958 196.864 196.016 196.222 196.066 196.172C196.07 196.168 196.076 196.165 196.085 196.161C196.093 196.158 196.103 196.155 196.116 196.152L196.212 195.451H208.793C216.806 195.451 220.067 195.379 220.937 195.136L220.811 194.725C220.734 194.471 220.246 192.925 219.528 190.655C218.849 188.511 217.965 185.721 217.028 182.765C215.097 176.68 213.587 171.642 213.672 171.569C213.686 171.558 213.794 171.514 213.985 171.444C213.96 171.332 213.95 171.269 213.958 171.261C214.068 171.151 219.339 169.328 225.671 167.211C233.639 164.546 237.17 163.183 237.142 162.781C237.12 162.463 233.998 157.866 230.205 152.567C226.412 147.268 223.365 142.767 223.433 142.565C223.502 142.364 227.909 138.987 233.229 135.062C238.548 131.138 242.954 127.744 243.018 127.521C243.084 127.298 238.618 123.803 233.094 119.753L223.051 112.39L230.22 102.373C234.163 96.8644 237.39 92.1845 237.39 91.9737C237.39 91.7912 233.436 90.3251 228.187 88.544ZM220.461 127.557C220.461 178.866 178.866 220.461 127.557 220.461C76.2484 220.461 34.6542 178.866 34.6542 127.557C34.6542 76.2483 76.2484 34.6541 127.557 34.6541C178.866 34.6541 220.461 76.2483 220.461 127.557Z" fill="#FFEA00"/>
<path fill-rule="evenodd" clip-rule="evenodd" d="M216.861 128.18C216.861 177.157 177.157 216.861 128.18 216.861C79.2036 216.861 39.5 177.157 39.5 128.18C39.5 79.2036 79.2036 39.5 128.18 39.5C177.157 39.5 216.861 79.2036 216.861 128.18ZM66.0819 86.2889C75.2791 72.7647 84.9627 62.6093 94.5156 55.5407C96.3175 54.2075 95.7291 54.38 91.5605 56.4091C78.1134 62.954 68.0291 71.4649 59.0245 86.1306C50.4668 100.069 48.7415 112.552 47.2514 126.322C47.2514 126.322 56.366 100.575 66.0819 86.2889ZM173.542 194.795C183.282 188.243 190.017 180.826 197.44 169.414C205.011 157.776 207.791 147.466 210.79 136.346L210.79 136.346C211.186 134.878 211.585 133.397 212 131.897C212 131.897 199.934 156.641 189.478 170.701C180.69 182.518 172.25 192.424 164.196 198.68C162.324 200.134 160.864 201.396 160.952 201.483C161.266 201.797 170.143 197.082 173.542 194.795Z" fill="url(#paint0_radial)"/>
<path fill-rule="evenodd" clip-rule="evenodd" d="M143.619 28.778C143.455 28.5915 139.933 23.8401 135.793 18.2194C131.653 12.5986 128.208 8 128.139 8C128.069 8 124.526 12.7409 120.265 18.5353L112.516 29.0704L111.52 28.4181C110.973 28.0593 106.31 24.7502 101.158 21.0647C96.0061 17.379 91.5677 14.2274 91.2957 14.0611C90.9435 13.8456 89.6407 17.3329 86.778 26.1567C84.3307 33.6992 83.0976 37.1692 82.4629 38.1996C82.0204 38.2 76.4636 36.554 69.9169 34.481L57.7548 30.6298L57.7471 30.9365L57.5198 30.8637L57.3133 43.7591C57.2072 50.3913 57.0226 55.9919 56.8887 56.8016L43.9874 57.099L30.8397 57.402L31.0075 57.9278C30.9283 57.9423 30.8875 57.9562 30.8875 57.9696C30.8875 58.2313 36.714 76.828 38.0897 80.9571L38.3521 81.7448C38.415 82.0248 38.4409 82.1927 38.4252 82.2329C38.3232 82.4933 32.7342 84.5335 26.0054 86.7661L13.772 90.825L14.6935 92.1339C14.9326 92.4728 15.8249 93.7258 17.0901 95.4994C18.5112 97.4915 20.4024 100.14 22.3665 102.889C26.0798 108.084 28.9651 112.469 28.7781 112.633C28.5915 112.798 23.8402 116.319 18.2194 120.459C12.5985 124.6 8 128.044 8 128.113C8 128.183 12.7409 131.727 18.5352 135.988L29.0705 143.736L28.418 144.732C28.0593 145.279 24.7502 149.943 21.0647 155.095C17.3791 160.246 14.2274 164.685 14.061 164.957C13.9205 165.186 15.3534 165.82 18.8123 167.026L17.881 167.033L28.2738 170.533L38.4263 173.953C38.5067 174.025 38.5443 174.087 38.5432 174.141C38.5416 174.226 38.4392 174.623 38.2548 175.27L38.0897 175.766C36.8715 179.422 32.1689 194.405 31.1031 197.985L30.8637 198.733L30.8905 198.733C30.8885 198.743 30.8875 198.75 30.8875 198.753C30.8875 198.912 36.6822 199.168 43.7651 199.323C50.8477 199.478 56.7468 199.708 56.8748 199.836C57.0024 199.964 57.1998 205.871 57.3133 212.964L57.5198 225.859L69.494 222.025C76.0797 219.916 81.7542 218.186 82.104 218.179C82.5759 218.171 83.7795 221.369 86.7653 230.569C89.6547 239.472 90.9315 242.884 91.2907 242.665C91.5657 242.496 96.0061 239.344 101.158 235.658C106.31 231.972 110.977 228.661 111.529 228.299L112.534 227.641L120.29 238.21C127.682 248.286 128.078 248.745 128.746 248.029C129.131 247.616 132.565 243.004 136.376 237.781C140.187 232.557 143.445 228.129 143.616 227.94C143.787 227.75 148.557 230.921 154.215 234.986C159.873 239.052 164.71 242.506 164.965 242.664C165.163 242.786 165.849 241.208 167.029 237.906L167.033 238.371L170.534 227.979L173.004 220.644C173.549 219.204 173.918 218.337 174.02 218.297C174.281 218.195 179.974 219.857 186.672 221.99L198.851 225.87L198.885 224.378C199.032 222.433 199.206 217.826 199.323 212.487C199.462 206.108 199.663 200.688 199.795 199.582L203.017 199.532C204.976 199.502 210.863 199.362 216.1 199.223L225.623 198.968L225.55 198.738L225.859 198.733L222.025 186.758C219.916 180.173 218.186 174.498 218.179 174.148V174.145C218.953 173.71 223.223 172.137 228.281 170.433L238.371 167.033L237.94 167.03C241.405 165.821 242.808 165.196 242.665 164.962C242.496 164.687 239.343 160.246 235.658 155.095C231.972 149.943 228.661 145.276 228.299 144.723L227.641 143.719L238.211 135.963C248.286 128.57 248.745 128.175 248.029 127.507C247.616 127.122 243.004 123.688 237.781 119.877C232.557 116.066 228.129 112.807 227.94 112.637C227.75 112.465 230.921 107.696 234.987 102.038C239.052 96.3798 242.506 91.5421 242.664 91.2875C242.855 90.9778 238.9 89.481 230.716 86.7657C223.988 84.5337 218.399 82.4933 218.297 82.2329C218.195 81.972 219.857 76.2784 221.99 69.5802L225.87 57.4016L212.728 57.0986L199.587 56.796L199.532 53.2351C199.502 51.2766 199.363 45.3895 199.223 40.1522L198.968 30.6298L186.806 34.481C180.117 36.5992 174.461 38.2714 174.238 38.1972C174.015 38.1224 172.302 33.521 170.433 27.9716L167.033 17.881L167.028 18.595L165.427 13.772L164.119 14.6935C163.399 15.201 158.559 18.6536 153.364 22.3665C148.169 26.0798 143.783 28.9651 143.619 28.778ZM228.784 89.1415C227.168 88.8974 225.393 88.3242 221.443 87.0143C217.582 85.7345 214.358 84.6319 214.278 84.5643C214.198 84.4966 215.737 79.3657 217.697 73.1623C219.657 66.9593 221.361 61.5589 221.483 61.1613C221.691 60.4841 220.915 60.4387 209.147 60.4387H196.589L196.32 55.1742C196.173 52.2788 196.051 46.4986 196.05 42.33C196.049 36.1649 195.946 34.7899 195.495 34.9625C194.102 35.4974 172.536 42.271 172.226 42.271C172.035 42.271 170.12 36.9754 167.971 30.5032C165.823 24.031 163.889 18.7355 163.675 18.7355C163.46 18.7355 158.78 21.9714 153.275 25.9262L143.266 33.1173L135.902 23.05C131.853 17.5129 128.365 13.0345 128.152 13.0982C127.939 13.1613 124.543 17.5677 120.606 22.8905C116.669 28.2129 113.278 32.626 113.071 32.697C112.863 32.7679 108.37 29.7216 103.086 25.927C97.8009 22.1325 93.2111 19.0089 92.8857 18.9849C92.4688 18.9546 91.1607 22.3319 88.4442 30.4544L88.1459 31.3448C87.8489 32.2869 87.4777 33.4123 87.0144 34.8097C85.7344 38.6708 84.632 41.8948 84.5642 41.9744C84.5629 41.976 84.5594 41.977 84.5539 41.9772C84.5399 41.9778 84.5125 41.9744 84.4725 41.9669C84.4198 42.0992 84.3859 42.1746 84.3725 42.1879C84.2088 42.3516 64.3544 36.2692 60.7621 34.956C60.4642 35.6403 60.4387 38.2855 60.4387 47.1056V59.6631L60.0019 59.6855L59.9972 60.2323L47.3004 60.3413C41.5068 60.3913 36.591 60.4637 35.0877 60.5173C34.9583 60.5835 34.9264 60.6625 34.9626 60.7569C35.4973 62.1504 42.271 83.7169 42.271 84.0262C42.271 84.0421 42.2339 84.0704 42.1621 84.1097L42.3175 84.5935L35.2606 86.9496C31.5396 88.1917 29.7506 88.779 28.196 89.0544C22.8184 90.8754 18.7355 92.3893 18.7355 92.5778C18.7355 92.7929 21.9714 97.4728 25.9262 102.977L33.1173 112.987L23.0499 120.35C17.5129 124.4 13.0346 127.887 13.0981 128.101C13.1613 128.314 17.5678 131.709 22.8905 135.646C28.2129 139.583 32.626 142.974 32.697 143.181C32.768 143.389 29.7216 147.882 25.927 153.167C22.1325 158.451 19.0089 163.041 18.9849 163.367C18.9547 163.784 22.3319 165.092 30.4545 167.808C36.7864 169.926 42.0661 171.758 42.188 171.88C42.3523 172.044 36.2277 192.033 34.9427 195.526C34.7966 195.923 37.5937 196.061 47.4938 196.146L60.2323 196.255L60.3412 208.952C60.3988 215.615 60.486 221.116 60.5401 221.602C60.5422 221.609 60.5444 221.615 60.5465 221.62C60.5485 221.626 60.5504 221.631 60.5524 221.636C60.7415 221.586 66.1183 219.868 72.6194 217.78L84.5936 213.935L86.9496 220.992C88.2061 224.756 88.7925 226.543 89.0639 228.11C91.3228 234.783 92.5047 237.766 92.8738 237.74C93.1921 237.717 97.7885 234.596 103.088 230.803C108.387 227.01 112.888 223.962 113.09 224.031C113.291 224.099 116.668 228.507 120.593 233.826C124.517 239.146 127.911 243.551 128.134 243.616C128.357 243.681 131.852 239.215 135.902 233.691L143.265 223.648L153.281 230.817C158.79 234.761 163.47 237.987 163.681 237.987C163.892 237.987 165.823 232.692 167.971 226.219C170.12 219.747 172.027 214.452 172.21 214.452C172.216 214.452 172.232 214.455 172.258 214.461C172.276 214.465 172.297 214.471 172.323 214.478C172.413 214.307 172.478 214.217 172.513 214.217C172.868 214.217 193.898 220.83 195.622 221.483C195.856 220.493 196.018 216.76 196.154 209.486C196.229 205.463 196.339 201.827 196.448 199.482C196.463 199.113 196.479 198.796 196.496 198.541C196.556 197.461 196.614 196.819 196.664 196.769C196.667 196.766 196.673 196.762 196.683 196.759C196.691 196.756 196.701 196.753 196.713 196.75L196.809 196.049H209.391C217.403 196.049 220.664 195.976 221.535 195.733L221.409 195.322C221.331 195.069 220.843 193.523 220.125 191.253C219.446 189.109 218.562 186.319 217.625 183.362C215.695 177.277 214.185 172.24 214.269 172.167C214.283 172.155 214.392 172.112 214.582 172.042C214.557 171.929 214.548 171.867 214.555 171.859C214.666 171.749 219.936 169.926 226.268 167.808C234.237 165.143 237.768 163.78 237.74 163.379C237.717 163.06 234.595 158.464 230.803 153.165C227.01 147.865 223.962 143.364 224.031 143.163C224.099 142.961 228.507 139.585 233.826 135.66C239.146 131.735 243.551 128.341 243.616 128.118C243.681 127.896 239.215 124.4 233.691 120.35L223.648 112.987L230.817 102.971C234.761 97.4619 237.987 92.7821 237.987 92.5712C237.987 92.3887 234.034 90.9226 228.784 89.1415ZM221.058 128.155C221.058 179.464 179.464 221.058 128.155 221.058C76.8458 221.058 35.2516 179.464 35.2516 128.155C35.2516 76.8458 76.8458 35.2516 128.155 35.2516C179.464 35.2516 221.058 76.8458 221.058 128.155ZM216.835 128.155C216.835 177.132 177.132 216.835 128.155 216.835C79.178 216.835 39.4744 177.132 39.4744 128.155C39.4744 79.178 79.178 39.4744 128.155 39.4744C177.132 39.4744 216.835 79.178 216.835 128.155ZM66.0563 86.2633C75.2535 72.7391 84.9371 62.5837 94.49 55.5151C96.2919 54.1819 95.7035 54.3544 91.5349 56.3835C78.0878 62.9284 68.0035 71.4393 58.9989 86.105C50.4412 100.043 48.7159 112.526 47.2258 126.297C47.2258 126.297 56.3404 100.55 66.0563 86.2633ZM173.517 194.77C183.257 188.218 189.991 180.801 197.415 169.389C204.985 157.75 207.766 147.44 210.764 136.321L210.764 136.32C211.16 134.853 211.559 133.371 211.974 131.871C211.974 131.871 199.909 156.616 189.453 170.675C180.665 182.493 172.225 192.398 164.17 198.655C162.298 200.108 160.839 201.37 160.927 201.457C161.241 201.772 170.117 197.056 173.517 194.77Z" fill="white"/>
<defs>
<radialGradient id="paint0_radial" cx="0" cy="0" r="1" gradientUnits="userSpaceOnUse" gradientTransform="translate(128.18 128.18) rotate(90) scale(88.6803)">
<stop offset="0.921875" stop-color="#FFEA00"/>
<stop offset="1" stop-color="#FFC93D"/>
</radialGradient>
</defs>
</svg>
