<svg width="144" height="144" viewBox="0 0 144 144" fill="none" xmlns="http://www.w3.org/2000/svg">
<path fill-rule="evenodd" clip-rule="evenodd" d="M72 144C111.764 144 144 111.764 144 72C144 32.2355 111.764 0 72 0C32.2355 0 0 32.2355 0 72C0 111.764 32.2355 144 72 144ZM80.6987 16.1005C80.6063 15.9956 78.6253 13.323 76.2964 10.1613C73.9676 6.99961 72.0301 4.4129 71.9911 4.4129C71.9519 4.4129 69.9586 7.07968 67.5617 10.339L63.2034 16.265L62.6432 15.8981C62.3352 15.6962 59.7121 13.8349 56.8142 11.7618C53.9163 9.68861 51.4198 7.91583 51.2667 7.82227C51.0686 7.70103 50.3358 9.66264 48.7255 14.626C47.3489 18.8687 46.6553 20.8206 46.2983 21.4002C46.0494 21.4004 42.9237 20.4745 39.2412 19.3085L32.4 17.1422L32.3956 17.3147L32.2678 17.2737L32.1516 24.5274C32.0919 28.258 31.9881 31.4084 31.9128 31.8638L24.6558 32.0311L17.2602 32.2015L17.3546 32.4973C17.3101 32.5055 17.2871 32.5133 17.2871 32.5208C17.2871 32.668 20.5645 43.1287 21.3384 45.4512L21.486 45.8943C21.5214 46.0518 21.5359 46.1463 21.5271 46.1689C21.4697 46.3154 18.3259 47.463 14.541 48.7188L7.65964 51.002L8.17802 51.7382C8.31247 51.9288 8.81441 52.6337 9.5261 53.6313C10.3254 54.7519 11.3893 56.2418 12.4941 57.7878C14.5828 60.7101 16.2058 63.1769 16.1006 63.2691C15.9956 63.3615 13.323 65.3424 10.1613 67.6714C6.99955 70.0002 4.4129 71.9376 4.4129 71.9766C4.4129 72.016 7.07968 74.0092 10.3389 76.4061L16.265 80.7645L15.8981 81.3246C15.6962 81.6326 13.8349 84.2557 11.7618 87.1536C9.68867 90.0515 7.91583 92.548 7.82221 92.7011C7.74316 92.8302 8.54921 93.1865 10.4948 93.865L9.97099 93.869L15.8169 95.838L21.5277 97.7612C21.5729 97.8019 21.594 97.8368 21.5935 97.867C21.5926 97.9151 21.535 98.1386 21.4313 98.5021L21.3384 98.781C20.6531 100.838 18.0079 109.266 17.4084 111.279L17.2737 111.7L17.2888 111.7C17.2877 111.706 17.2871 111.71 17.2871 111.711C17.2871 111.801 20.5466 111.945 24.5308 112.032C28.5147 112.119 31.833 112.249 31.905 112.321C31.9768 112.392 32.0878 115.715 32.1516 119.705L32.2678 126.959L39.0033 124.802C42.7078 123.616 45.8997 122.642 46.0964 122.639C46.3619 122.634 47.0389 124.433 48.7184 129.608C50.3437 134.616 51.0618 136.535 51.2639 136.412C51.4186 136.317 53.9163 134.544 56.8142 132.47C59.7121 130.397 62.3373 128.535 62.648 128.331L63.2132 127.961L67.5759 133.906C71.7342 139.574 71.9567 139.832 72.3323 139.429C72.549 139.197 74.4804 136.603 76.6242 133.665C78.7679 130.726 80.6006 128.235 80.6968 128.129C80.7932 128.022 83.476 129.806 86.6587 132.093C89.8413 134.379 92.5624 136.323 92.7057 136.411C92.8173 136.48 93.2029 135.592 93.867 133.735L93.8689 133.997L95.838 128.151L97.2276 124.025C97.5341 123.215 97.742 122.728 97.7989 122.705C97.9457 122.648 101.148 123.582 104.916 124.782L111.766 126.965L111.786 126.126C111.868 125.032 111.967 122.44 112.032 119.437C112.11 115.849 112.224 112.8 112.298 112.178L114.11 112.15C115.212 112.133 118.523 112.054 121.469 111.976L126.826 111.832L126.785 111.703L126.959 111.7L124.802 104.965C123.616 101.26 122.642 98.0681 122.639 97.8714V97.8692C123.074 97.6247 125.476 96.7398 128.321 95.7814L133.997 93.869L133.754 93.8672C135.703 93.1873 136.493 92.8357 136.412 92.7039C136.317 92.5492 134.544 90.0515 132.47 87.1536C130.397 84.2557 128.535 81.6305 128.331 81.3197L127.961 80.7547L133.906 76.3919C139.574 72.2336 139.832 72.0111 139.429 71.6355C139.197 71.4188 136.603 69.4874 133.665 67.3436C130.726 65.1999 128.235 63.3671 128.129 63.271C128.022 63.1746 129.806 60.4918 132.093 57.3091C134.379 54.1266 136.323 51.4054 136.411 51.2621C136.519 51.0879 134.294 50.246 129.691 48.7186C125.906 47.4631 122.763 46.3154 122.705 46.1689C122.648 46.0221 123.582 42.8195 124.783 39.0518L126.965 32.2013L119.572 32.0309L112.181 31.8606L112.15 29.8576C112.133 28.756 112.054 25.4445 111.976 22.4985L111.832 17.1422L104.991 19.3085C101.229 20.5 98.0473 21.4405 97.9218 21.3988C97.7962 21.3567 96.833 18.7684 95.7814 15.6469L93.8689 9.97099L93.8659 10.3726L92.9658 7.65964L92.2296 8.17802C91.8248 8.46347 89.1024 10.4056 86.18 12.4941C83.2577 14.5828 80.7909 16.2058 80.6987 16.1005Z" fill="#E20613"/>
<path fill-rule="evenodd" clip-rule="evenodd" d="M128.355 49.806C127.446 49.6687 126.448 49.3463 124.226 48.6095C122.054 47.8895 120.24 47.2693 120.195 47.2313C120.15 47.1932 121.016 44.3071 122.119 40.8177C123.221 37.3285 124.18 34.2908 124.248 34.0671C124.365 33.6862 123.929 33.6607 117.309 33.6607H110.245L110.094 30.6994C110.011 29.0707 109.943 25.8194 109.942 23.4745C109.942 20.0067 109.883 19.2332 109.63 19.3303C108.846 19.6312 96.7152 23.4413 96.5413 23.4413C96.4335 23.4413 95.3563 20.4626 94.1479 16.822C92.9394 13.1814 91.8518 10.2026 91.731 10.2026C91.61 10.2026 88.9776 12.0228 85.8811 14.2474L80.2509 18.2924L76.1091 12.6295C73.8311 9.51491 71.8692 6.99579 71.7494 7.03163C71.6295 7.06712 69.7194 9.54575 67.5051 12.5398C65.2905 15.5337 63.383 18.016 63.2664 18.0559C63.1495 18.0959 60.6221 16.3823 57.6497 14.2478C54.677 12.1134 52.0952 10.3564 51.9122 10.3429C51.6776 10.3259 50.9418 12.2256 49.4138 16.7945L49.246 17.2953C49.079 17.8253 48.8702 18.4583 48.6096 19.2443C47.8895 21.4162 47.2694 23.2297 47.2313 23.2745C47.2306 23.2754 47.2286 23.276 47.2255 23.2761C47.2176 23.2764 47.2022 23.2745 47.1797 23.2703C47.1501 23.3447 47.131 23.3871 47.1235 23.3946C47.0314 23.4867 35.8633 20.0653 33.8426 19.3267C33.6751 19.7116 33.6607 21.1995 33.6607 26.1608V33.2244L33.415 33.237L33.4124 33.5445L26.2704 33.6059C23.0115 33.634 20.2464 33.6747 19.4008 33.7049C19.328 33.7421 19.3101 33.7866 19.3304 33.8396C19.6312 34.6235 23.4414 46.7547 23.4414 46.9286C23.4414 46.9376 23.4205 46.9535 23.3801 46.9756L23.4676 47.2478L19.498 48.573C17.405 49.2718 16.3987 49.6021 15.5242 49.757C12.4993 50.7813 10.2027 51.6329 10.2027 51.7389C10.2027 51.8599 12.0228 54.4923 14.2474 57.5887L18.2925 63.2189L12.6295 67.3608C9.51496 69.6388 6.9959 71.6006 7.03163 71.7205C7.06718 71.8404 9.54586 73.7504 12.5399 75.9648C15.5337 78.1794 18.0161 80.0869 18.056 80.2035C18.096 80.3203 16.3823 82.8478 14.2479 85.8202C12.1135 88.7928 10.3564 91.3746 10.3429 91.5577C10.326 91.7922 12.2256 92.528 16.7946 94.056C20.3563 95.2473 23.3262 96.2778 23.3947 96.3463C23.4871 96.4387 20.042 107.683 19.3192 109.647C19.237 109.871 20.8104 109.948 26.3792 109.996L33.5446 110.057L33.6059 117.199C33.6383 120.947 33.6873 124.042 33.7178 124.315C33.719 124.319 33.7201 124.322 33.7214 124.325C33.7225 124.328 33.7236 124.331 33.7247 124.334C33.8311 124.306 36.8555 123.34 40.5123 122.165L47.2478 120.002L48.5731 123.972C49.2799 126.089 49.6098 127.094 49.7624 127.976C51.033 131.729 51.6979 133.407 51.9055 133.392C52.0845 133.38 54.67 131.624 57.6508 129.49C60.6319 127.357 63.1635 125.643 63.2768 125.681C63.3904 125.72 65.2896 128.199 67.4974 131.191C69.705 134.183 71.6139 136.661 71.7394 136.698C71.8645 136.734 73.8308 134.222 76.1088 131.115L80.2505 125.466L85.8848 129.499C88.9836 131.717 91.616 133.532 91.7347 133.532C91.8534 133.532 92.9394 130.553 94.1479 126.912C95.3563 123.272 96.4293 120.293 96.5322 120.293C96.5356 120.293 96.5447 120.295 96.5592 120.298C96.569 120.301 96.5812 120.304 96.5959 120.308C96.6462 120.212 96.6826 120.161 96.7025 120.161C96.9024 120.161 108.731 123.881 109.702 124.248C109.833 123.691 109.924 121.591 110 117.5C110.043 115.237 110.105 113.191 110.166 111.873C110.175 111.665 110.184 111.487 110.193 111.343C110.227 110.736 110.259 110.375 110.287 110.347C110.289 110.345 110.293 110.343 110.298 110.341C110.302 110.339 110.308 110.337 110.315 110.336L110.369 109.941H117.446C121.953 109.941 123.788 109.901 124.277 109.764L124.206 109.533C124.163 109.39 123.888 108.52 123.484 107.244C123.103 106.038 122.605 104.468 122.078 102.805C120.992 99.3824 120.143 96.5487 120.19 96.5078C120.198 96.5011 120.259 96.4768 120.366 96.4375C120.352 96.3742 120.347 96.3389 120.351 96.3345C120.413 96.2725 123.378 95.2473 126.94 94.056C131.422 92.557 133.408 91.7902 133.393 91.5644C133.38 91.3853 131.624 88.7998 129.49 85.819C127.357 82.838 125.643 80.3063 125.681 80.193C125.72 80.0795 128.199 78.1803 131.191 75.9725C134.183 73.7649 136.661 71.8559 136.698 71.7305C136.735 71.6053 134.222 69.639 131.115 67.361L125.466 63.2194L129.499 57.5851C131.717 54.4862 133.532 51.8538 133.532 51.7352C133.532 51.6325 131.308 50.8078 128.355 49.806ZM124.009 71.751C124.009 100.612 100.612 124.009 71.751 124.009C42.8897 124.009 19.493 100.612 19.493 71.751C19.493 42.8896 42.8897 19.4929 71.751 19.4929C100.612 19.4929 124.009 42.8896 124.009 71.751Z" fill="#FFEA00"/>
<path fill-rule="evenodd" clip-rule="evenodd" d="M121.984 72.1015C121.984 99.651 99.6509 121.984 72.1015 121.984C44.552 121.984 22.2188 99.651 22.2188 72.1015C22.2188 44.552 44.552 22.2188 72.1015 22.2188C99.6509 22.2188 121.984 44.552 121.984 72.1015ZM37.171 48.5375C42.3445 40.9302 47.7915 35.2177 53.165 31.2417C54.1786 30.4917 53.8476 30.5888 51.5028 31.7301C43.9388 35.4116 38.2664 40.199 33.2013 48.4485C28.3876 56.2886 27.4171 63.3103 26.5789 71.0563C26.5789 71.0563 31.7059 56.5737 37.171 48.5375ZM97.6176 109.572C103.096 105.887 106.885 101.715 111.06 95.2954C115.319 88.7489 116.883 82.9496 118.569 76.6948L118.569 76.6945C118.792 75.8691 119.017 75.0358 119.25 74.1918C119.25 74.1918 112.463 88.1107 106.582 96.0193C101.638 102.667 96.8909 108.238 92.36 111.758C91.3071 112.575 90.4861 113.285 90.5356 113.334C90.7123 113.511 95.7054 110.859 97.6176 109.572Z" fill="url(#paint0_radial)"/>
<path fill-rule="evenodd" clip-rule="evenodd" d="M80.7858 16.1876C80.6934 16.0827 78.7124 13.4101 76.3835 10.2484C74.0547 7.08671 72.1172 4.5 72.0782 4.5C72.039 4.5 70.0457 7.16677 67.6488 10.4261L63.2905 16.3521L62.7303 15.9852C62.4223 15.7833 59.7992 13.922 56.9013 11.8489C54.0034 9.77571 51.5069 8.00292 51.3538 7.90936C51.1557 7.78813 50.4229 9.74974 48.8126 14.7131C47.436 18.9558 46.7424 20.9076 46.3854 21.4873C46.1365 21.4875 43.0108 20.5616 39.3283 19.3956L32.4871 17.2293L32.4827 17.4018L32.3549 17.3608L32.2387 24.6145C32.179 28.3451 32.0752 31.4955 31.9999 31.9509L24.7429 32.1182L17.3473 32.2886L17.4417 32.5844C17.3972 32.5926 17.3742 32.6004 17.3742 32.6079C17.3742 32.7551 20.6516 43.2158 21.4255 45.5383L21.5731 45.9814C21.6084 46.139 21.623 46.2334 21.6142 46.256C21.5568 46.4025 18.413 47.5501 14.6281 48.806L7.74674 51.0891L8.26512 51.8253C8.39957 52.0159 8.90151 52.7208 9.61319 53.7184C10.4125 54.839 11.4764 56.3289 12.5812 57.8749C14.6699 60.7972 16.2929 63.264 16.1877 63.3562C16.0827 63.4486 13.4101 65.4295 10.2484 67.7585C7.08665 70.0873 4.5 72.0247 4.5 72.0637C4.5 72.1031 7.16677 74.0963 10.426 76.4932L16.3521 80.8516L15.9852 81.4117C15.7833 81.7197 13.922 84.3428 11.8489 87.2407C9.77576 90.1386 8.00292 92.6351 7.90931 92.7882C7.83026 92.9173 8.6363 93.2736 10.5819 93.9521L10.0581 93.9561L15.904 95.9251L21.6148 97.8484C21.66 97.889 21.6811 97.9239 21.6806 97.9541C21.6797 98.0023 21.6221 98.2257 21.5183 98.5892L21.4255 98.8681C20.7402 100.925 18.095 109.353 17.4955 111.366L17.3608 111.787L17.3759 111.787C17.3748 111.793 17.3742 111.797 17.3742 111.799C17.3742 111.888 20.6337 112.032 24.6179 112.119C28.6018 112.206 31.9201 112.336 31.9921 112.408C32.0639 112.48 32.1749 115.802 32.2387 119.792L32.3549 127.046L39.0904 124.889C42.7949 123.703 45.9868 122.73 46.1835 122.726C46.449 122.721 47.126 124.52 48.8055 129.695C50.4308 134.703 51.1489 136.623 51.351 136.499C51.5057 136.404 54.0034 134.631 56.9013 132.558C59.7992 130.484 62.4244 128.622 62.7351 128.418L63.3002 128.048L67.663 133.993C71.8213 139.661 72.0438 139.919 72.4194 139.516C72.6361 139.284 74.5675 136.69 76.7113 133.752C78.855 130.814 80.6877 128.323 80.7839 128.216C80.8803 128.109 83.5631 129.893 86.7458 132.18C89.9284 134.467 92.6495 136.41 92.7928 136.498C92.9044 136.567 93.2899 135.679 93.9541 133.822L93.956 134.084L95.9251 128.238L97.3147 124.112C97.6212 123.302 97.8291 122.815 97.886 122.792C98.0328 122.735 101.235 123.669 105.003 124.87L111.854 127.052L111.873 126.213C111.956 125.119 112.054 122.527 112.119 119.524C112.198 115.936 112.311 112.887 112.385 112.265L114.197 112.237C115.299 112.22 118.61 112.141 121.556 112.063L126.913 111.919L126.872 111.79L127.046 111.787L124.889 105.052C123.703 101.347 122.73 98.1552 122.726 97.9585V97.9563C123.161 97.7118 125.563 96.8269 128.408 95.8685L134.084 93.9561L133.841 93.9543C135.79 93.2744 136.58 92.9229 136.499 92.791C136.404 92.6363 134.631 90.1386 132.558 87.2407C130.484 84.3428 128.622 81.7176 128.418 81.4068L128.048 80.8418L133.993 76.479C139.661 72.3207 139.919 72.0982 139.516 71.7226C139.284 71.5059 136.69 69.5745 133.752 67.4307C130.814 65.287 128.323 63.4542 128.216 63.3581C128.109 63.2618 129.893 60.5789 132.18 57.3962C134.466 54.2137 136.41 51.4925 136.498 51.3492C136.606 51.175 134.381 50.3331 129.778 48.8057C125.993 47.5502 122.85 46.4025 122.792 46.256C122.735 46.1092 123.67 42.9066 124.87 39.1389L127.052 32.2884L119.66 32.118L112.268 31.9477L112.237 29.9447C112.22 28.8431 112.141 25.5316 112.063 22.5856L111.919 17.2293L105.078 19.3956C101.316 20.587 98.1344 21.5276 98.0089 21.4859C97.8833 21.4438 96.9201 18.8555 95.8685 15.734L93.956 10.0581L93.953 10.4597L93.0529 7.74674L92.3167 8.26512C91.9119 8.55057 89.1895 10.4927 86.2671 12.5812C83.3448 14.6699 80.878 16.2929 80.7858 16.1876ZM128.691 50.1421C127.782 50.0048 126.784 49.6824 124.562 48.9456C122.39 48.2256 120.576 47.6054 120.531 47.5674C120.487 47.5293 121.352 44.6432 122.455 41.1538C123.557 37.6646 124.516 34.6269 124.584 34.4032C124.701 34.0223 124.265 33.9968 117.645 33.9968H110.581L110.43 31.0355C110.347 29.4068 110.279 26.1555 110.278 23.8106C110.278 20.3428 110.219 19.5693 109.966 19.6664C109.182 19.9673 97.0513 23.7774 96.8773 23.7774C96.7695 23.7774 95.6923 20.7987 94.4839 17.1581C93.2755 13.5175 92.1878 10.5387 92.067 10.5387C91.946 10.5387 89.3136 12.3589 86.2171 14.5835L80.587 18.6285L76.4451 12.9656C74.1671 9.85101 72.2053 7.33189 72.0854 7.36773C71.9655 7.40323 70.0555 9.88186 67.8411 12.8759C65.6265 15.8698 63.719 18.3521 63.6024 18.3921C63.4856 18.432 60.9582 16.7184 57.9857 14.5839C55.013 12.4495 52.4312 10.6925 52.2482 10.679C52.0137 10.662 51.2779 12.5617 49.7498 17.1306L49.5821 17.6314C49.415 18.1614 49.2062 18.7944 48.9456 19.5804C48.2256 21.7523 47.6055 23.5658 47.5674 23.6106C47.5666 23.6115 47.5647 23.6121 47.5616 23.6122C47.5537 23.6125 47.5383 23.6106 47.5158 23.6064C47.4861 23.6808 47.4671 23.7232 47.4595 23.7307C47.3674 23.8228 36.1994 20.4014 34.1787 19.6628C34.0111 20.0477 33.9968 21.5356 33.9968 26.4969V33.5605L33.7511 33.5731L33.7484 33.8806L26.6065 33.942C23.3475 33.9701 20.5825 34.0108 19.7368 34.041C19.664 34.0782 19.6461 34.1227 19.6665 34.1757C19.9672 34.9596 23.7774 47.0908 23.7774 47.2647C23.7774 47.2737 23.7566 47.2896 23.7162 47.3117L23.8036 47.5839L19.8341 48.9091C17.741 49.6079 16.7347 49.9382 15.8602 50.0931C12.8354 51.1174 10.5387 51.969 10.5387 52.075C10.5387 52.196 12.3589 54.8284 14.5835 57.9248L18.6285 63.555L12.9656 67.6969C9.85101 69.9749 7.33195 71.9367 7.36767 72.0566C7.40323 72.1765 9.88191 74.0865 12.8759 76.3009C15.8698 78.5155 18.3521 80.423 18.392 80.5396C18.432 80.6564 16.7184 83.1839 14.5839 86.1563C12.4495 89.1289 10.6925 91.7108 10.679 91.8938C10.662 92.1283 12.5617 92.8641 17.1307 94.3922C20.6923 95.5834 23.6622 96.6139 23.7308 96.6824C23.8232 96.7748 20.3781 108.019 19.6553 109.984C19.5731 110.207 21.1464 110.284 26.7152 110.332L33.8806 110.394L33.9419 117.536C33.9743 121.283 34.0234 124.378 34.0538 124.651C34.055 124.655 34.0562 124.658 34.0574 124.661C34.0585 124.665 34.0596 124.667 34.0607 124.67C34.1671 124.642 37.1916 123.676 40.8484 122.501L47.5839 120.338L48.9091 124.308C49.6159 126.425 49.9458 127.431 50.0985 128.312C51.3691 132.066 52.0339 133.743 52.2415 133.729C52.4206 133.716 55.006 131.96 57.9868 129.826C60.9679 127.693 63.4995 125.979 63.6129 126.017C63.7264 126.056 65.6256 128.535 67.8334 131.527C70.0411 134.52 71.95 136.997 72.0754 137.034C72.2006 137.071 74.1669 134.559 76.4449 131.451L80.5865 125.802L86.2208 129.835C89.3196 132.053 91.952 133.868 92.0707 133.868C92.1894 133.868 93.2755 130.889 94.4839 127.248C95.6923 123.608 96.7654 120.629 96.8683 120.629C96.8717 120.629 96.8807 120.631 96.8952 120.634C96.905 120.637 96.9173 120.64 96.9319 120.644C96.9822 120.548 97.0186 120.497 97.0386 120.497C97.2384 120.497 109.067 124.217 110.038 124.584C110.169 124.027 110.26 121.927 110.336 117.836C110.379 115.573 110.441 113.528 110.502 112.209C110.511 112.001 110.52 111.823 110.529 111.679C110.563 111.072 110.595 110.711 110.623 110.683C110.625 110.681 110.629 110.679 110.634 110.677C110.638 110.675 110.644 110.673 110.651 110.672L110.705 110.277H117.782C122.289 110.277 124.124 110.237 124.613 110.1L124.542 109.869C124.499 109.726 124.224 108.856 123.82 107.58C123.439 106.374 122.941 104.804 122.414 103.141C121.328 99.7186 120.479 96.8848 120.527 96.8439C120.534 96.8372 120.595 96.8129 120.702 96.7736C120.688 96.7103 120.683 96.675 120.687 96.6706C120.749 96.6086 123.714 95.5834 127.276 94.3922C131.758 92.8931 133.744 92.1263 133.729 91.9005C133.716 91.7214 131.96 89.1359 129.826 86.1552C127.693 83.1741 125.979 80.6424 126.017 80.5291C126.056 80.4156 128.535 78.5164 131.527 76.3086C134.519 74.101 136.997 72.192 137.034 72.0666C137.071 71.9414 134.559 69.9751 131.451 67.6971L125.802 63.5555L129.835 57.9212C132.053 54.8223 133.868 52.1899 133.868 52.0713C133.868 51.9687 131.644 51.144 128.691 50.1421ZM124.345 72.0871C124.345 100.948 100.948 124.345 72.0871 124.345C43.2258 124.345 19.829 100.948 19.829 72.0871C19.829 43.2257 43.2258 19.829 72.0871 19.829C100.948 19.829 124.345 43.2257 124.345 72.0871ZM121.97 72.0871C121.97 99.6366 99.6365 121.97 72.0871 121.97C44.5376 121.97 22.2043 99.6366 22.2043 72.0871C22.2043 44.5376 44.5376 22.2043 72.0871 22.2043C99.6365 22.2043 121.97 44.5376 121.97 72.0871ZM37.1566 48.5231C42.3301 40.9158 47.7771 35.2033 53.1506 31.2273C54.1642 30.4773 53.8332 30.5744 51.4884 31.7157C43.9244 35.3972 38.252 40.1846 33.1869 48.4341C28.3732 56.2742 27.4027 63.2959 26.5645 71.0419C26.5645 71.0419 31.6915 56.5593 37.1566 48.5231ZM97.6032 109.558C103.082 105.872 106.87 101.7 111.046 95.2811C115.304 88.7345 116.868 82.9352 118.555 76.6804L118.555 76.6801C118.777 75.8547 119.002 75.0214 119.235 74.1774C119.235 74.1774 112.449 88.0964 106.567 96.0049C101.624 102.652 96.8764 108.224 92.3456 111.743C91.2927 112.561 90.4717 113.271 90.5212 113.32C90.6979 113.497 95.691 110.844 97.6032 109.558Z" fill="white"/>
<defs>
<radialGradient id="paint0_radial" cx="0" cy="0" r="1" gradientUnits="userSpaceOnUse" gradientTransform="translate(72.1015 72.1014) rotate(90) scale(49.8827)">
<stop offset="0.921875" stop-color="#FFEA00"/>
<stop offset="1" stop-color="#FFC93D"/>
</radialGradient>
</defs>
</svg>
