<svg width="168" height="168" viewBox="0 0 168 168" fill="none" xmlns="http://www.w3.org/2000/svg">
<path fill-rule="evenodd" clip-rule="evenodd" d="M84 168C130.392 168 168 130.392 168 84C168 37.6081 130.392 0 84 0C37.6081 0 0 37.6081 0 84C0 130.392 37.6081 168 84 168ZM94.1485 18.784C94.0406 18.6616 91.7295 15.5435 89.0125 11.8548C86.2956 8.16621 84.0351 5.14839 83.9896 5.14839C83.9438 5.14839 81.6184 8.25962 78.822 12.0622L73.7373 18.9758L73.0837 18.5478C72.7244 18.3123 69.6641 16.1407 66.2832 13.7221C62.9024 11.3034 59.9897 9.23513 59.8112 9.12598C59.58 8.98454 58.7251 11.2731 56.8465 17.0637C55.2404 22.0135 54.4312 24.2906 54.0147 24.9669C53.7243 24.9671 50.0776 23.887 45.7814 22.5266L37.8 19.9992L37.7949 20.2005L37.6457 20.1527L37.5102 28.6153C37.4406 32.9677 37.3195 36.6431 37.2316 37.1744L28.7651 37.3696L20.137 37.5685L20.247 37.9135C20.1951 37.923 20.1683 37.9322 20.1683 37.9409C20.1683 38.1126 23.992 50.3168 24.8948 53.0265L25.067 53.5434C25.1082 53.7272 25.1252 53.8374 25.1149 53.8637C25.048 54.0346 21.3802 55.3735 16.9645 56.8387L8.93625 59.5023L9.54103 60.3612C9.69788 60.5836 10.2835 61.4059 11.1138 62.5699C12.0464 63.8772 13.2875 65.6155 14.5764 67.4191C17.0133 70.8284 18.9067 73.7064 18.784 73.814C18.6616 73.9218 15.5435 76.2328 11.8548 78.9499C8.16615 81.6669 5.14839 83.9272 5.14839 83.9727C5.14839 84.0187 8.25962 86.3441 12.0621 89.1404L18.9759 94.2252L18.5477 94.8787C18.3123 95.238 16.1407 98.2983 13.7221 101.679C11.3034 105.06 9.23513 107.973 9.12591 108.151C9.03369 108.302 9.97407 108.718 12.244 109.509L11.6328 109.514L18.4531 111.811L25.1157 114.055C25.1684 114.102 25.1931 114.143 25.1924 114.178C25.1913 114.234 25.1241 114.495 25.0031 114.919L24.8948 115.245C24.0953 117.644 21.0092 127.477 20.3098 129.826L20.1527 130.317L20.1703 130.317C20.169 130.323 20.1683 130.328 20.1683 130.33C20.1683 130.434 23.9711 130.603 28.6192 130.704C33.2672 130.806 37.1385 130.957 37.2225 131.041C37.3062 131.125 37.4358 135.001 37.5102 139.656L37.6457 148.118L45.5038 145.602C49.8257 144.218 53.5496 143.083 53.7792 143.079C54.0888 143.073 54.8787 145.172 56.8381 151.21C58.7343 157.052 59.5722 159.291 59.8079 159.147C59.9884 159.037 62.9024 156.968 66.2832 154.549C69.6641 152.13 72.7269 149.957 73.0894 149.719L73.7487 149.287L78.8385 156.224C83.6899 162.836 83.9495 163.138 84.3877 162.667C84.6405 162.396 86.8939 159.37 89.3949 155.942C91.8959 152.514 94.0341 149.608 94.1463 149.484C94.2587 149.359 97.3887 151.44 101.102 154.108C104.815 156.776 107.99 159.043 108.157 159.146C108.287 159.227 108.737 158.191 109.511 156.024L109.514 156.33L111.811 149.509L113.432 144.696C113.79 143.751 114.032 143.182 114.099 143.156C114.27 143.089 118.006 144.179 122.402 145.58L130.394 148.125L130.417 147.147C130.513 145.87 130.628 142.847 130.704 139.343C130.796 135.157 130.927 131.6 131.014 130.874L133.129 130.841C134.414 130.821 138.277 130.73 141.714 130.638L147.963 130.471L147.915 130.32L148.118 130.317L145.602 122.459C144.218 118.137 143.083 114.413 143.079 114.183V114.181C143.586 113.895 146.389 112.863 149.708 111.745L156.33 109.514L156.046 109.512C158.321 108.719 159.241 108.308 159.147 108.154C159.037 107.974 156.968 105.06 154.549 101.679C152.13 98.2983 149.957 95.2356 149.719 94.873L149.287 94.2138L156.224 89.1239C162.836 84.2726 163.137 84.013 162.667 83.5748C162.396 83.3219 159.37 81.0686 155.942 78.5676C152.514 76.0665 149.608 73.9283 149.484 73.8162C149.359 73.7038 151.44 70.5737 154.108 66.8606C156.776 63.1477 159.043 59.9729 159.146 59.8058C159.272 59.6026 156.677 58.6203 151.306 56.8384C146.891 55.3736 143.223 54.0346 143.156 53.8637C143.089 53.6925 144.18 49.9561 145.58 45.5604L148.125 37.5682L139.501 37.3693L130.877 37.1707L130.841 34.8339C130.821 33.5487 130.73 29.6853 130.638 26.2483L130.471 19.9992L122.49 22.5266C118.1 23.9166 114.388 25.014 114.242 24.9653C114.096 24.9162 112.972 21.8965 111.745 18.2547L109.514 11.6328L109.51 12.1013L108.46 8.93625L107.601 9.54103C107.129 9.87405 103.953 12.1398 100.543 14.5764C97.134 17.0133 94.256 18.9067 94.1485 18.784Z" fill="#E20613"/>
<path fill-rule="evenodd" clip-rule="evenodd" d="M149.747 58.107C148.687 57.9468 147.522 57.5706 144.93 56.711C142.396 55.8711 140.28 55.1475 140.228 55.1032C140.176 55.0588 141.185 51.6916 142.472 47.6206C143.758 43.5499 144.876 40.0059 144.956 39.745C145.092 39.3006 144.584 39.2708 136.861 39.2708H128.62L128.443 35.8159C128.347 33.9159 128.267 30.1226 128.266 27.387C128.265 23.3411 128.197 22.4388 127.902 22.552C126.987 22.903 112.834 27.3482 112.631 27.3482C112.506 27.3482 111.249 23.873 109.839 19.6256C108.429 15.3783 107.16 11.903 107.019 11.903C106.878 11.903 103.807 14.0266 100.195 16.622L93.6261 21.3411L88.7939 14.7344C86.1362 11.1007 83.8474 8.16176 83.7076 8.20357C83.5677 8.24498 81.3393 11.1367 78.7559 14.6298C76.1722 18.1226 73.9468 21.0187 73.8108 21.0653C73.6744 21.1118 70.7258 19.1127 67.2579 16.6225C63.7898 14.1323 60.7777 12.0825 60.5642 12.0667C60.2906 12.0469 59.4321 14.2632 57.6494 19.5936L57.4537 20.1779C57.2588 20.7962 57.0152 21.5347 56.7112 22.4517C55.8711 24.9856 55.1477 27.1013 55.1032 27.1536C55.1023 27.1546 55.1001 27.1553 55.0964 27.1554C55.0872 27.1558 55.0693 27.1536 55.043 27.1487C55.0084 27.2355 54.9862 27.285 54.9774 27.2937C54.8699 27.4011 41.8405 23.4095 39.4831 22.5478C39.2876 22.9968 39.2708 24.7327 39.2708 30.521V38.7618L38.9842 38.7765L38.9811 39.1353L30.6488 39.2069C26.8468 39.2397 23.6208 39.2872 22.6342 39.3224C22.5493 39.3658 22.5284 39.4176 22.5522 39.4796C22.903 40.3941 27.3483 54.5471 27.3483 54.7501C27.3483 54.7605 27.3239 54.7791 27.2768 54.8049L27.3788 55.1224L22.7477 56.6686C20.3058 57.4837 19.1318 57.8691 18.1115 58.0499C14.5826 59.2449 11.9031 60.2384 11.9031 60.3621C11.9031 60.5033 14.0267 63.5744 16.622 67.1868L21.3412 73.7554L14.7344 78.5876C11.1008 81.2452 8.16189 83.534 8.20356 83.6739C8.24504 83.8138 11.1368 86.0421 14.6299 88.6255C18.1227 91.2093 21.0188 93.4347 21.0653 93.5707C21.112 93.707 19.1127 96.6557 16.6226 100.124C14.1324 103.592 12.0825 106.604 12.0668 106.817C12.047 107.091 14.2632 107.949 19.5937 109.732C23.749 111.122 27.2138 112.324 27.2938 112.404C27.4017 112.512 23.3824 125.63 22.5391 127.922C22.4432 128.182 24.2788 128.273 30.7757 128.329L39.1354 128.4L39.2069 136.733C39.2446 141.105 39.3019 144.715 39.3374 145.034C39.3388 145.039 39.3402 145.042 39.3416 145.046C39.3429 145.05 39.3442 145.053 39.3455 145.057C39.4696 145.024 42.9981 143.896 47.2644 142.526L55.1225 140.003L56.6686 144.634C57.4932 147.104 57.878 148.277 58.0561 149.305C59.5385 153.684 60.3142 155.642 60.5564 155.625C60.7653 155.61 63.7817 153.561 67.2593 151.072C70.7372 148.583 73.6907 146.583 73.8229 146.628C73.9554 146.673 76.1712 149.566 78.7469 153.056C81.3225 156.547 83.5496 159.438 83.6959 159.481C83.8419 159.524 86.136 156.593 88.7936 152.968L93.6256 146.377L100.199 151.082C103.814 153.67 106.885 155.787 107.024 155.787C107.162 155.787 108.429 152.312 109.839 148.064C111.249 143.817 112.501 140.342 112.621 140.342C112.625 140.342 112.635 140.344 112.652 140.348C112.664 140.351 112.678 140.354 112.695 140.359C112.754 140.247 112.796 140.187 112.82 140.187C113.053 140.187 126.853 144.527 127.985 144.956C128.138 144.306 128.245 141.857 128.334 137.083C128.383 134.443 128.455 132.057 128.527 130.518C128.537 130.276 128.547 130.068 128.558 129.9C128.598 129.192 128.636 128.771 128.668 128.738C128.671 128.735 128.675 128.733 128.681 128.731C128.686 128.729 128.693 128.727 128.701 128.725L128.764 128.265H137.021C142.279 128.265 144.419 128.217 144.99 128.058L144.908 127.788C144.857 127.622 144.536 126.607 144.065 125.118C143.62 123.71 143.04 121.879 142.424 119.94C141.158 115.946 140.167 112.64 140.222 112.592C140.231 112.585 140.303 112.556 140.428 112.51C140.411 112.437 140.405 112.395 140.41 112.39C140.482 112.318 143.941 111.122 148.096 109.732C153.326 107.983 155.643 107.089 155.625 106.825C155.61 106.616 153.561 103.6 151.072 100.122C148.583 96.6444 146.583 93.6907 146.628 93.5585C146.673 93.4261 149.566 91.2103 153.056 88.6345C156.547 86.059 159.438 83.8319 159.481 83.6855C159.524 83.5395 156.593 81.2455 152.968 78.5878L146.377 73.7559L151.082 67.1826C153.67 63.5672 155.787 60.4961 155.787 60.3577C155.787 60.238 153.193 59.2758 149.747 58.107ZM144.677 83.7095C144.677 117.381 117.381 144.677 83.7096 144.677C50.038 144.677 22.7418 117.381 22.7418 83.7095C22.7418 50.0379 50.038 22.7418 83.7096 22.7418C117.381 22.7418 144.677 50.0379 144.677 83.7095Z" fill="#FFEA00"/>
<path fill-rule="evenodd" clip-rule="evenodd" d="M142.315 84.1184C142.315 116.259 116.259 142.315 84.1184 142.315C51.9773 142.315 25.9219 116.259 25.9219 84.1184C25.9219 51.9774 51.9773 25.9219 84.1184 25.9219C116.259 25.9219 142.315 51.9774 142.315 84.1184ZM43.3662 56.6271C49.4019 47.7518 55.7568 41.0873 62.0259 36.4486C63.2084 35.5736 62.8223 35.6869 60.0866 37.0185C51.2619 41.3136 44.6441 46.8989 38.7348 56.5232C33.1189 65.67 31.9866 73.862 31.0087 82.8991C31.0087 82.8991 36.9902 66.0026 43.3662 56.6271ZM113.887 127.834C120.279 123.535 124.699 118.667 129.57 111.178C134.538 103.54 136.363 96.7746 138.331 89.4772L138.331 89.4769C138.591 88.514 138.853 87.5418 139.125 86.5571C139.125 86.5571 131.207 102.796 124.345 112.023C118.578 119.778 113.039 126.278 107.753 130.384C106.525 131.338 105.567 132.166 105.625 132.223C105.831 132.429 111.656 129.335 113.887 127.834Z" fill="url(#paint0_radial)"/>
<path fill-rule="evenodd" clip-rule="evenodd" d="M94.2501 18.8856C94.1422 18.7632 91.8311 15.6451 89.1141 11.9565C86.3972 8.26782 84.1367 5.25 84.0912 5.25C84.0454 5.25 81.72 8.36123 78.9236 12.1638L73.8389 19.0774L73.1853 18.6494C72.826 18.4139 69.7657 16.2423 66.3848 13.8237C63.004 11.405 60.0913 9.33674 59.9128 9.22759C59.6816 9.08615 58.8267 11.3747 56.9481 17.1653C55.3421 22.1151 54.5328 24.3923 54.1163 25.0685C53.8259 25.0688 50.1792 23.9886 45.883 22.6282L37.9016 20.1008L37.8965 20.3021L37.7473 20.2543L37.6119 28.7169C37.5422 33.0693 37.4211 36.7447 37.3332 37.2761L28.8667 37.4712L20.2386 37.6701L20.3486 38.0151C20.2967 38.0247 20.2699 38.0338 20.2699 38.0425C20.2699 38.2143 24.0936 50.4184 24.9964 53.1281L25.1686 53.645C25.2099 53.8288 25.2269 53.939 25.2165 53.9653C25.1496 54.1363 21.4818 55.4751 17.0661 56.9403L9.03786 59.6039L9.64264 60.4629C9.79949 60.6853 10.3851 61.5076 11.2154 62.6715C12.148 63.9788 13.3891 65.7171 14.678 67.5207C17.1149 70.93 19.0084 73.808 18.8856 73.9156C18.7632 74.0234 15.6451 76.3344 11.9565 79.0515C8.26776 81.7685 5.25 84.0288 5.25 84.0744C5.25 84.1203 8.36123 86.4457 12.1637 89.2421L19.0775 94.3268L18.6493 94.9803C18.4139 95.3396 16.2423 98.3999 13.8237 101.781C11.4051 105.162 9.33674 108.074 9.22752 108.253C9.1353 108.403 10.0757 108.819 12.3456 109.611L11.7344 109.615L18.5547 111.913L25.2173 114.156C25.27 114.204 25.2947 114.245 25.294 114.28C25.2929 114.336 25.2257 114.597 25.1047 115.021L24.9964 115.346C24.1969 117.746 21.1108 127.578 20.4114 129.928L20.2543 130.418L20.2719 130.419C20.2706 130.425 20.2699 130.429 20.2699 130.432C20.2699 130.536 24.0727 130.704 28.7209 130.806C33.3688 130.907 37.2401 131.059 37.3241 131.142C37.4078 131.226 37.5374 135.103 37.6119 139.757L37.7473 148.22L45.6054 145.704C49.9273 144.32 53.6512 143.184 53.8808 143.18C54.1904 143.174 54.9803 145.274 56.9397 151.311C58.8359 157.154 59.6738 159.393 59.9095 159.249C60.09 159.138 63.004 157.069 66.3848 154.65C69.7657 152.232 72.8285 150.059 73.191 149.821L73.8503 149.389L78.9401 156.326C83.7915 162.937 84.0511 163.239 84.4893 162.769C84.7421 162.498 86.9955 159.471 89.4965 156.044C91.9975 152.616 94.1357 149.71 94.2479 149.585C94.3604 149.461 97.4903 151.542 101.203 154.21C104.916 156.878 108.091 159.145 108.258 159.248C108.388 159.329 108.838 158.293 109.613 156.126L109.615 156.431L111.913 149.611L113.534 144.798C113.891 143.853 114.134 143.284 114.2 143.258C114.372 143.19 118.108 144.281 122.504 145.681L130.496 148.227L130.518 147.248C130.615 145.972 130.729 142.949 130.806 139.445C130.897 135.258 131.029 131.702 131.116 130.976L133.23 130.943C134.515 130.923 138.379 130.832 141.816 130.74L148.065 130.573L148.017 130.422L148.22 130.418L145.704 122.56C144.32 118.238 143.185 114.514 143.18 114.285V114.282C143.688 113.997 146.49 112.965 149.809 111.847L156.431 109.615L156.148 109.613C158.422 108.82 159.343 108.41 159.249 108.256C159.138 108.076 157.069 105.162 154.65 101.781C152.232 98.3999 150.059 95.3372 149.821 94.9746L149.389 94.3154L156.326 89.2255C162.938 84.3742 163.239 84.1146 162.769 83.6764C162.498 83.4235 159.471 81.1702 156.044 78.6692C152.616 76.1681 149.71 74.0299 149.585 73.9178C149.461 73.8054 151.542 70.6753 154.21 66.9622C156.878 63.2493 159.145 60.0745 159.248 59.9074C159.374 59.7042 156.778 58.7219 151.408 56.94C146.992 55.4752 143.325 54.1363 143.258 53.9653C143.19 53.7941 144.281 50.0577 145.681 45.662L148.227 37.6698L139.603 37.4709L130.979 37.2724L130.943 34.9355C130.923 33.6503 130.832 29.7869 130.74 26.3499L130.573 20.1008L122.591 22.6282C118.202 24.0182 114.49 25.1156 114.344 25.0669C114.197 25.0178 113.073 21.9981 111.847 18.3563L109.615 11.7344L109.612 12.2029L108.562 9.03786L107.703 9.64264C107.231 9.97566 104.054 12.2414 100.645 14.678C97.2356 17.1149 94.3577 19.0084 94.2501 18.8856ZM150.139 58.4991C149.079 58.3389 147.914 57.9628 145.322 57.1031C142.788 56.2632 140.672 55.5397 140.62 55.4953C140.568 55.4509 141.577 52.0838 142.864 48.0128C144.15 43.942 145.268 40.398 145.348 40.1371C145.484 39.6927 144.976 39.6629 137.253 39.6629H129.012L128.835 36.2081C128.739 34.308 128.659 30.5147 128.658 27.7791C128.657 23.7332 128.589 22.8309 128.294 22.9441C127.379 23.2952 113.226 27.7403 113.024 27.7403C112.898 27.7403 111.641 24.2651 110.231 20.0177C108.821 15.7704 107.552 12.2952 107.412 12.2952C107.27 12.2952 104.199 14.4187 100.587 17.0141L94.0181 21.7333L89.186 15.1266C86.5283 11.4928 84.2395 8.55387 84.0996 8.59568C83.9598 8.6371 81.7314 11.5288 79.148 15.0219C76.5643 18.5147 74.3388 21.4108 74.2028 21.4574C74.0665 21.504 71.1179 19.5048 67.65 17.0146C64.1818 14.5244 61.1698 12.4746 60.9562 12.4588C60.6826 12.439 59.8242 14.6553 58.0415 19.9857L57.8457 20.57C57.6508 21.1883 57.4073 21.9268 57.1032 22.8439C56.2632 25.3777 55.5397 27.4934 55.4953 27.5457C55.4944 27.5468 55.4921 27.5474 55.4885 27.5476C55.4793 27.5479 55.4613 27.5457 55.4351 27.5408C55.4005 27.6276 55.3782 27.6771 55.3694 27.6858C55.262 27.7932 42.2326 23.8016 39.8751 22.9399C39.6796 23.389 39.6629 25.1248 39.6629 30.9131V39.1539L39.3763 39.1686L39.3731 39.5274L31.0409 39.599C27.2388 39.6318 24.0129 39.6793 23.0263 39.7145C22.9414 39.7579 22.9205 39.8098 22.9442 39.8717C23.2951 40.7862 27.7403 54.9392 27.7403 55.1422C27.7403 55.1527 27.716 55.1712 27.6689 55.197L27.7709 55.5145L23.1398 57.0607C20.6979 57.8758 19.5238 58.2612 18.5036 58.442C14.9746 59.637 12.2952 60.6305 12.2952 60.7542C12.2952 60.8954 14.4187 63.9665 17.0141 67.5789L21.7333 74.1475L15.1265 78.9797C11.4928 81.6374 8.55394 83.9262 8.59562 84.066C8.6371 84.2059 11.5289 86.4342 15.0219 89.0177C18.5147 91.6014 21.4108 93.8268 21.4574 93.9628C21.504 94.0991 19.5048 97.0479 17.0146 100.516C14.5244 103.984 12.4746 106.996 12.4588 107.209C12.439 107.483 14.6553 108.341 19.9858 110.124C24.1411 111.514 27.6059 112.716 27.6859 112.796C27.7937 112.904 23.7744 126.022 22.9312 128.314C22.8353 128.575 24.6708 128.665 31.1678 128.721L39.5274 128.793L39.5989 137.125C39.6367 141.497 39.6939 145.107 39.7295 145.427C39.7308 145.431 39.7322 145.435 39.7336 145.438C39.7349 145.442 39.7362 145.445 39.7375 145.449C39.8616 145.416 43.3902 144.288 47.6565 142.918L55.5145 140.395L57.0607 145.026C57.8852 147.496 58.2701 148.669 58.4482 149.697C59.9306 154.077 60.7062 156.034 60.9484 156.017C61.1573 156.002 64.1737 153.953 67.6513 151.464C71.1292 148.975 74.0828 146.975 74.215 147.02C74.3475 147.065 76.5632 149.958 79.139 153.448C81.7146 156.939 83.9417 159.83 84.088 159.873C84.234 159.916 86.528 156.985 89.1857 153.36L94.0176 146.769L100.591 151.474C104.206 154.062 107.277 156.179 107.416 156.179C107.554 156.179 108.821 152.704 110.231 148.456C111.641 144.209 112.893 140.734 113.013 140.734C113.017 140.734 113.028 140.736 113.044 140.74C113.056 140.743 113.07 140.747 113.087 140.751C113.146 140.639 113.188 140.58 113.212 140.58C113.445 140.58 127.245 144.92 128.377 145.348C128.53 144.698 128.637 142.249 128.726 137.475C128.775 134.835 128.847 132.449 128.919 130.91C128.929 130.668 128.94 130.46 128.95 130.292C128.99 129.584 129.028 129.163 129.06 129.13C129.063 129.128 129.067 129.125 129.073 129.123C129.078 129.121 129.085 129.119 129.093 129.117L129.156 128.657H137.413C142.671 128.657 144.811 128.61 145.382 128.45L145.3 128.18C145.249 128.014 144.928 126.999 144.457 125.51C144.012 124.103 143.432 122.272 142.816 120.332C141.55 116.338 140.559 113.032 140.614 112.985C140.623 112.977 140.695 112.948 140.82 112.903C140.803 112.829 140.797 112.788 140.802 112.782C140.874 112.71 144.333 111.514 148.488 110.124C153.718 108.375 156.035 107.481 156.017 107.217C156.002 107.008 153.953 103.992 151.464 100.514C148.975 97.0365 146.975 94.0828 147.02 93.9507C147.065 93.8182 149.958 91.6024 153.448 89.0267C156.939 86.4511 159.83 84.224 159.873 84.0777C159.916 83.9316 156.985 81.6376 153.36 78.9799L146.769 74.148L151.474 67.5747C154.062 63.9594 156.179 60.8882 156.179 60.7498C156.179 60.6301 153.585 59.6679 150.139 58.4991ZM145.069 84.1016C145.069 117.773 117.773 145.069 84.1016 145.069C50.4301 145.069 23.1339 117.773 23.1339 84.1016C23.1339 50.43 50.4301 23.1339 84.1016 23.1339C117.773 23.1339 145.069 50.43 145.069 84.1016ZM142.298 84.1016C142.298 116.243 116.243 142.298 84.1016 142.298C51.9605 142.298 25.9051 116.243 25.9051 84.1016C25.9051 51.9606 51.9605 25.9051 84.1016 25.9051C116.243 25.9051 142.298 51.9606 142.298 84.1016ZM43.3494 56.6103C49.3851 47.735 55.74 41.0705 62.0091 36.4318C63.1916 35.5568 62.8054 35.6701 60.0698 37.0017C51.2451 41.2968 44.6273 46.882 38.718 56.5064C33.1021 65.6532 31.9698 73.8452 30.9919 82.8823C30.9919 82.8823 36.9734 65.9858 43.3494 56.6103ZM113.87 127.818C120.262 123.518 124.682 118.65 129.553 111.161C134.522 103.524 136.346 96.7578 138.314 89.4604L138.314 89.4601C138.574 88.4972 138.836 87.525 139.108 86.5403C139.108 86.5403 131.19 102.779 124.328 112.006C118.561 119.761 113.023 126.261 107.736 130.367C106.508 131.321 105.55 132.149 105.608 132.206C105.814 132.413 111.64 129.318 113.87 127.818Z" fill="white"/>
<defs>
<radialGradient id="paint0_radial" cx="0" cy="0" r="1" gradientUnits="userSpaceOnUse" gradientTransform="translate(84.1184 84.1183) rotate(90) scale(58.1965)">
<stop offset="0.921875" stop-color="#FFEA00"/>
<stop offset="1" stop-color="#FFC93D"/>
</radialGradient>
</defs>
</svg>
