<svg width="512" height="512" viewBox="0 0 512 512" fill="none" xmlns="http://www.w3.org/2000/svg">
<path fill-rule="evenodd" clip-rule="evenodd" d="M256 512C397.385 512 512 397.385 512 256C512 114.615 397.385 0 256 0C114.615 0 0 114.615 0 256C0 397.385 114.615 512 256 512ZM286.929 57.2464C286.6 56.8734 279.557 47.3706 271.276 36.129C262.996 24.8875 256.107 15.6903 255.968 15.6903C255.829 15.6903 248.742 25.1722 240.219 36.7609L224.723 57.831L222.731 56.5266C221.636 55.8089 212.31 49.1907 202.006 41.8198C191.702 34.4484 182.826 28.1452 182.282 27.8125C181.577 27.3815 178.972 34.356 173.246 52.0036C168.352 67.0887 165.885 74.0286 164.616 76.0895C163.731 76.0903 152.618 72.7984 139.524 68.6524L115.2 60.95L115.184 61.5633L114.73 61.4177L114.317 87.2085C114.105 100.473 113.735 111.674 113.468 113.294L87.6651 113.888L61.3698 114.494L61.7052 115.546C61.547 115.575 61.4653 115.603 61.4653 115.629C61.4653 116.153 73.1183 153.346 75.8698 161.604L76.3946 163.18C76.5204 163.74 76.5722 164.076 76.5407 164.156C76.3367 164.677 65.1587 168.757 51.7012 173.223L27.2343 181.34L29.0774 183.958C29.5554 184.636 31.3401 187.142 33.8706 190.689C36.7127 194.673 40.4952 199.971 44.4234 205.468C51.85 215.858 57.6206 224.629 57.2466 224.957C56.8734 225.285 47.3708 232.329 36.129 240.609C24.8873 248.89 15.6903 255.778 15.6903 255.917C15.6903 256.057 25.1722 263.144 36.7607 271.666L57.8313 287.163L56.5264 289.154C55.8089 290.249 49.1907 299.576 41.8198 309.879C34.4486 320.183 28.1452 329.06 27.8123 329.604C27.5313 330.063 30.3972 331.33 37.3149 333.742L35.4524 333.756L56.2379 340.757L76.5429 347.596C76.7036 347.74 76.7788 347.864 76.7768 347.971C76.7736 348.143 76.5688 348.937 76.2 350.23L75.8698 351.221C73.4333 358.535 64.028 388.5 61.8966 395.66L61.4177 397.156L61.4714 397.156C61.4673 397.176 61.4653 397.19 61.4653 397.196C61.4653 397.514 73.0546 398.027 87.2206 398.336C101.386 398.646 113.184 399.107 113.44 399.362C113.695 399.618 114.09 411.431 114.317 425.617L114.73 451.408L138.678 443.74C151.85 439.523 163.199 436.062 163.898 436.049C164.842 436.031 167.249 442.429 173.221 460.829C179 478.635 181.553 485.459 182.272 485.02C182.822 484.683 191.702 478.377 202.006 471.006C212.31 463.635 221.644 457.012 222.749 456.288L224.758 454.971L240.27 476.111C255.055 496.262 255.846 497.181 257.181 495.748C257.952 494.921 264.819 485.698 272.442 475.252C280.064 464.805 286.58 455.948 286.922 455.569C287.265 455.19 296.804 461.533 308.12 469.663C319.436 477.794 329.111 484.703 329.62 485.018C330.017 485.263 331.388 482.106 333.749 475.503L333.756 476.433L340.757 455.648L345.698 440.978C346.788 438.098 347.527 436.365 347.729 436.285C348.251 436.08 359.639 439.404 373.035 443.671L397.392 451.429L397.461 448.447C397.754 444.557 398.103 435.343 398.336 424.665C398.615 411.906 399.017 401.067 399.281 398.854L405.725 398.755C409.642 398.694 421.416 398.415 431.891 398.135L450.936 397.626L450.79 397.166L451.408 397.156L443.741 373.207C439.523 360.035 436.062 348.687 436.049 347.987V347.979C437.597 347.11 446.137 343.964 456.252 340.556L476.433 333.756L475.57 333.75C482.501 331.333 485.307 330.083 485.02 329.614C484.683 329.064 478.377 320.183 471.006 309.879C463.635 299.576 457.012 290.242 456.288 289.137L454.971 287.128L476.111 271.616C496.262 256.831 497.181 256.04 495.748 254.704C494.922 253.933 485.698 247.066 475.252 239.444C464.805 231.822 455.948 225.305 455.569 224.964C455.19 224.621 461.532 215.082 469.663 203.766C477.793 192.45 484.703 182.775 485.018 182.265C485.401 181.646 477.49 178.652 461.123 173.222C447.666 168.758 436.489 164.677 436.285 164.156C436.08 163.634 439.404 152.247 443.671 138.851L451.43 114.494L425.147 113.887L398.865 113.282L398.755 106.16C398.694 102.244 398.415 90.4694 398.135 79.9948L397.626 60.95L373.302 68.6524C359.924 72.8887 348.613 76.2331 348.167 76.0847C347.72 75.9351 344.295 66.7323 340.556 55.6335L333.756 35.4524L333.746 36.8802L330.545 27.2343L327.927 29.0774C326.488 30.0923 316.809 36.9976 306.418 44.4234C296.027 51.85 287.256 57.6206 286.929 57.2464Z" fill="#E20613"/>
<path fill-rule="evenodd" clip-rule="evenodd" d="M456.373 177.088C453.141 176.6 449.592 175.453 441.691 172.834C433.969 170.274 427.521 168.069 427.361 167.934C427.202 167.798 430.279 157.536 434.2 145.13C438.12 132.724 441.527 121.923 441.771 121.128C442.186 119.773 440.636 119.682 417.099 119.682H391.984L391.446 109.153C391.151 103.363 390.908 91.8022 390.906 83.4651C390.904 71.1348 390.696 68.3848 389.796 68.73C387.009 69.7997 343.876 83.3469 343.258 83.3469C342.875 83.3469 339.044 72.7558 334.748 59.8114C330.451 46.8671 326.584 36.2759 326.155 36.2759C325.724 36.2759 316.365 42.7477 305.355 50.6574L285.337 65.0397L270.61 44.905C262.51 33.8308 255.535 24.8739 255.109 25.0013C254.683 25.1276 247.891 33.9405 240.018 44.586C232.144 55.2308 225.362 64.057 224.947 64.1989C224.532 64.3409 215.545 58.2481 204.977 50.659C194.407 43.0699 185.227 36.8227 184.577 36.7747C183.743 36.7142 181.127 43.4687 175.693 59.7138L175.097 61.4945C174.503 63.3788 173.761 65.6296 172.834 68.4243C170.274 76.1465 168.069 82.5945 167.934 82.7538C167.931 82.757 167.924 82.759 167.913 82.7594C167.885 82.7606 167.83 82.7538 167.75 82.7388C167.645 83.0034 167.577 83.1542 167.55 83.1808C167.223 83.5082 127.514 71.3433 120.329 68.7171C119.734 70.0856 119.683 75.3759 119.683 93.0163V118.131L118.809 118.176L118.8 119.269L93.406 119.488C81.8187 119.588 71.9872 119.732 68.9806 119.84C68.7217 119.972 68.658 120.13 68.7304 120.319C69.7997 123.106 83.3471 166.239 83.3471 166.857C83.3471 166.889 83.2729 166.946 83.1294 167.024L83.4403 167.992L69.3263 172.704C61.8844 175.188 58.3064 176.363 55.1971 176.914C44.4421 180.556 36.2761 183.584 36.2761 183.961C36.2761 184.391 42.7479 193.751 50.6576 204.76L65.0398 224.778L44.905 239.505C33.831 247.605 24.8743 254.58 25.0013 255.006C25.1277 255.432 33.9408 262.224 44.5862 270.097C55.231 277.971 64.0572 284.753 64.1991 285.168C64.3413 285.583 58.2483 294.57 50.6592 305.138C43.0701 315.708 36.8229 324.888 36.7749 325.538C36.7146 326.372 43.4689 328.988 59.7142 334.421C72.3779 338.657 82.9374 342.321 83.1812 342.565C83.5098 342.893 71.2606 382.871 68.6907 389.858C68.3983 390.651 73.9925 390.927 93.7927 391.096L119.27 391.315L119.488 416.709C119.603 430.034 119.777 441.037 119.885 442.01C119.89 442.022 119.894 442.034 119.898 442.046C119.902 442.056 119.906 442.067 119.91 442.077C120.288 441.977 131.042 438.541 144.044 434.365L167.992 426.675L172.704 440.789C175.217 448.317 176.39 451.891 176.933 455.026C181.451 468.371 183.815 474.336 184.553 474.284C185.189 474.239 194.382 467.996 204.981 460.41C215.58 452.824 224.581 446.73 224.984 446.866C225.388 447.003 232.141 455.819 239.991 466.457C247.84 477.096 254.627 485.907 255.073 486.036C255.518 486.167 262.51 477.235 270.609 466.188L285.335 446.101L305.368 460.44C316.386 468.326 325.746 474.779 326.168 474.779C326.59 474.779 330.451 464.188 334.748 451.244C339.044 438.299 342.86 427.708 343.226 427.708C343.238 427.708 343.27 427.715 343.322 427.727C343.356 427.736 343.4 427.747 343.452 427.761C343.631 427.42 343.76 427.238 343.831 427.238C344.542 427.238 386.6 440.465 390.05 441.772C390.517 439.79 390.842 432.325 391.112 417.777C391.263 409.731 391.483 402.459 391.701 397.77C391.732 397.03 391.764 396.398 391.797 395.886C391.917 393.728 392.033 392.444 392.132 392.344C392.139 392.337 392.152 392.33 392.171 392.323C392.186 392.317 392.207 392.31 392.231 392.304L392.423 390.903H417.586C433.612 390.903 440.134 390.758 441.875 390.271L441.623 389.449C441.467 388.942 440.491 385.85 439.055 381.311C437.698 377.022 435.93 371.442 434.055 365.53C430.195 353.36 427.175 343.284 427.344 343.139C427.372 343.115 427.589 343.029 427.97 342.889C427.919 342.664 427.9 342.538 427.916 342.523C428.136 342.302 438.678 338.657 451.341 334.421C467.279 329.092 474.341 326.365 474.285 325.562C474.239 324.926 467.996 315.733 460.41 305.134C452.825 294.535 446.73 285.534 446.866 285.131C447.003 284.727 455.819 277.974 466.458 270.124C477.097 262.275 485.907 255.488 486.037 255.042C486.167 254.597 477.235 247.605 466.188 239.506L446.102 224.78L460.44 204.747C468.327 193.729 474.779 184.369 474.779 183.947C474.779 183.582 466.873 180.65 456.373 177.088ZM440.921 255.115C440.921 357.733 357.733 440.921 255.115 440.921C152.497 440.921 69.3084 357.733 69.3084 255.115C69.3084 152.497 152.497 69.3082 255.115 69.3082C357.733 69.3082 440.921 152.497 440.921 255.115Z" fill="#FFEA00"/>
<path fill-rule="evenodd" clip-rule="evenodd" d="M433.722 256.361C433.722 354.315 354.314 433.721 256.361 433.721C158.407 433.721 79 354.315 79 256.361C79 158.407 158.407 79 256.361 79C354.314 79 433.722 158.407 433.722 256.361ZM132.164 172.578C150.558 145.529 169.925 125.219 189.031 111.081C192.635 108.415 191.458 108.76 183.121 112.818C156.227 125.908 136.058 142.93 118.049 172.261C100.934 200.137 97.4831 225.103 94.5028 252.645C94.5028 252.645 112.732 201.151 132.164 172.578ZM347.085 389.59C366.565 376.487 380.034 361.652 394.881 338.828C410.022 315.552 415.582 294.932 421.58 272.693L421.58 272.692C422.371 269.757 423.17 266.794 424 263.793C424 263.793 399.868 313.283 378.957 341.402C361.381 365.037 344.501 384.848 328.391 397.36C324.648 400.268 321.728 402.791 321.904 402.966C322.533 403.594 340.286 394.164 347.085 389.59Z" fill="url(#paint0_radial)"/>
<path fill-rule="evenodd" clip-rule="evenodd" d="M287.238 57.556C286.91 57.1831 279.866 47.6802 271.586 36.4387C263.306 25.1972 256.417 16 256.278 16C256.139 16 249.051 25.4819 240.529 37.0706L225.033 58.1407L223.041 56.8363C221.946 56.1185 212.619 49.5004 202.316 42.1294C192.012 34.7581 183.135 28.4548 182.591 28.1222C181.887 27.6911 179.281 34.6657 173.556 52.3133C168.661 67.3984 166.195 74.3383 164.926 76.3992C164.041 76.4 152.927 73.1081 139.834 68.9621L115.51 61.2597L115.494 61.873L115.04 61.7274L114.627 87.5181C114.414 100.783 114.045 111.984 113.777 113.603L87.9748 114.198L61.6794 114.804L62.0149 115.856C61.8567 115.885 61.775 115.912 61.775 115.939C61.775 116.463 73.428 153.656 76.1794 161.914L76.7042 163.49C76.83 164.05 76.8819 164.385 76.8504 164.466C76.6464 164.987 65.4684 169.067 52.0109 173.532L27.544 181.65L29.3871 184.268C29.8651 184.946 31.6498 187.452 34.1802 190.999C37.0224 194.983 40.8048 200.281 44.7331 205.777C52.1597 216.168 57.9302 224.939 57.5563 225.267C57.1831 225.595 47.6804 232.638 36.4387 240.919C25.197 249.199 16 256.088 16 256.227C16 256.367 25.4819 263.454 37.0704 271.976L58.1409 287.472L56.8361 289.464C56.1185 290.559 49.5004 299.885 42.1294 310.189C34.7583 320.493 28.4548 329.369 28.122 329.914C27.8409 330.373 30.7069 331.639 37.6246 334.052L35.7621 334.066L56.5476 341.067L76.8526 347.905C77.0133 348.05 77.0885 348.174 77.0865 348.281C77.0833 348.452 76.8784 349.247 76.5097 350.539L76.1794 351.531C73.743 358.844 64.3377 388.81 62.2063 395.97L61.7274 397.465L61.7811 397.466C61.777 397.486 61.775 397.499 61.775 397.506C61.775 397.824 73.3643 398.337 87.5302 398.646C101.695 398.955 113.494 399.417 113.75 399.672C114.005 399.927 114.4 411.741 114.627 425.927L115.04 451.718L138.988 444.05C152.159 439.833 163.508 436.372 164.208 436.358C165.152 436.341 167.559 442.739 173.531 461.139C179.309 478.945 181.863 485.769 182.581 485.33C183.131 484.993 192.012 478.687 202.316 471.316C212.619 463.945 221.953 457.322 223.058 456.598L225.068 455.281L240.579 476.421C255.365 496.571 256.156 497.491 257.491 496.058C258.262 495.231 265.129 486.008 272.751 475.561C280.373 465.115 286.89 456.258 287.232 455.879C287.574 455.5 297.113 461.842 308.429 469.973C319.745 478.103 329.421 485.012 329.93 485.327C330.327 485.573 331.698 482.415 334.059 475.812L334.066 476.743L341.067 455.957L346.008 441.288C347.098 438.408 347.837 436.674 348.039 436.595C348.561 436.39 359.948 439.714 373.344 443.981L397.702 451.739L397.77 448.757C398.064 444.867 398.413 435.653 398.646 424.975C398.925 412.216 399.327 401.377 399.59 399.164L406.035 399.065C409.951 399.003 421.726 398.725 432.2 398.445L451.245 397.935L451.099 397.475L451.718 397.465L444.05 373.517C439.833 360.345 436.372 348.996 436.359 348.297V348.289C437.906 347.42 446.447 344.273 456.562 340.866L476.743 334.066L475.879 334.06C482.81 331.642 485.617 330.392 485.33 329.923C484.993 329.373 478.687 320.493 471.316 310.189C463.945 299.885 457.322 290.552 456.598 289.446L455.281 287.438L476.421 271.925C496.571 257.14 497.491 256.349 496.058 255.014C495.231 254.243 486.008 247.376 475.561 239.754C465.115 232.131 456.258 225.615 455.879 225.273C455.5 224.931 461.842 215.392 469.973 204.075C478.103 192.76 485.013 183.084 485.327 182.575C485.711 181.956 477.8 178.962 461.433 173.531C447.976 169.067 436.799 164.987 436.595 164.466C436.39 163.944 439.714 152.557 443.981 139.16L451.739 114.803L425.456 114.197L399.174 113.592L399.064 106.47C399.003 102.553 398.725 90.779 398.445 80.3044L397.935 61.2597L373.611 68.9621C360.233 73.1984 348.922 76.5427 348.476 76.3944C348.029 76.2448 344.605 67.0419 340.866 55.9431L334.066 35.7621L334.055 37.1899L330.855 27.544L328.237 29.3871C326.798 30.402 317.118 37.3073 306.727 44.7331C296.337 52.1597 287.566 57.9302 287.238 57.556ZM457.568 178.283C454.336 177.795 450.786 176.648 442.885 174.029C435.163 171.469 428.716 169.264 428.556 169.129C428.397 168.993 431.474 158.731 435.395 146.325C439.315 133.919 442.722 123.118 442.966 122.323C443.381 120.968 441.831 120.877 418.294 120.877H393.179L392.641 110.348C392.346 104.558 392.103 92.9972 392.101 84.6601C392.098 72.3298 391.891 69.5798 390.991 69.925C388.204 70.9948 345.071 84.5419 344.453 84.5419C344.069 84.5419 340.239 73.9508 335.943 61.0065C331.646 48.0621 327.779 37.471 327.349 37.471C326.919 37.471 317.559 43.9427 306.55 51.8524L286.531 66.2347L271.805 46.1C263.705 35.0258 256.73 26.069 256.304 26.1964C255.877 26.3226 249.086 35.1355 241.213 45.781C233.339 56.4258 226.556 65.252 226.142 65.394C225.726 65.5359 216.74 59.4431 206.171 51.854C195.602 44.2649 186.422 38.0177 185.771 37.9698C184.938 37.9093 182.321 44.6637 176.888 60.9089L176.292 62.6895C175.698 64.5738 174.955 66.8246 174.029 69.6194C171.469 77.3415 169.264 83.7895 169.128 83.9488C169.126 83.952 169.119 83.954 169.108 83.9544C169.08 83.9556 169.025 83.9488 168.945 83.9339C168.84 84.1984 168.772 84.3492 168.745 84.3758C168.418 84.7032 128.709 72.5383 121.524 69.9121C120.928 71.2806 120.877 76.571 120.877 94.2113V119.326L120.004 119.371L119.994 120.465L94.6008 120.683C83.0135 120.783 73.1821 120.927 70.1754 121.035C69.9165 121.167 69.8528 121.325 69.9252 121.514C70.9946 124.301 84.5419 167.434 84.5419 168.052C84.5419 168.084 84.4677 168.141 84.3242 168.219L84.6351 169.187L70.5212 173.899C63.0792 176.383 59.5012 177.558 56.3919 178.109C45.6369 181.751 37.471 184.779 37.471 185.156C37.471 185.586 43.9427 194.946 51.8524 205.955L66.2347 225.973L46.0998 240.7C35.0258 248.8 26.0692 255.775 26.1962 256.201C26.3226 256.627 35.1357 263.419 45.7811 271.292C56.4258 279.166 65.252 285.948 65.394 286.363C65.5361 286.778 59.4431 295.765 51.854 306.333C44.2649 316.903 38.0177 326.083 37.9698 326.733C37.9095 327.567 44.6637 330.183 60.9091 335.617C73.5728 339.852 84.1323 343.516 84.376 343.76C84.7046 344.088 72.4554 384.066 69.8855 391.053C69.5931 391.846 75.1873 392.122 94.9875 392.292L120.465 392.51L120.682 417.904C120.798 431.229 120.972 442.232 121.08 443.205C121.084 443.217 121.089 443.229 121.093 443.241C121.097 443.252 121.101 443.262 121.105 443.272C121.483 443.172 132.237 439.736 145.239 435.56L169.187 427.87L173.899 441.984C176.412 449.512 177.585 453.086 178.128 456.221C182.646 469.566 185.009 475.531 185.748 475.479C186.384 475.434 195.577 469.191 206.175 461.605C216.775 454.019 225.776 447.925 226.179 448.061C226.583 448.198 233.335 457.014 241.186 467.652C249.035 478.292 255.822 487.102 256.268 487.231C256.713 487.362 263.704 478.43 271.804 467.383L286.53 447.296L306.563 461.635C317.581 469.521 326.941 475.974 327.362 475.974C327.785 475.974 331.646 465.383 335.943 452.439C340.239 439.494 344.055 428.903 344.421 428.903C344.433 428.903 344.465 428.91 344.516 428.922C344.551 428.931 344.595 428.942 344.647 428.956C344.826 428.615 344.955 428.433 345.026 428.433C345.737 428.433 387.795 441.66 391.245 442.967C391.712 440.985 392.037 433.52 392.307 418.972C392.457 410.926 392.678 403.654 392.896 398.965C392.927 398.225 392.958 397.593 392.992 397.081C393.111 394.923 393.227 393.639 393.327 393.539C393.334 393.532 393.347 393.525 393.365 393.518C393.381 393.512 393.402 393.505 393.426 393.499L393.618 392.098H418.781C434.807 392.098 441.328 391.953 443.07 391.466L442.818 390.644C442.662 390.137 441.686 387.045 440.25 382.506C438.893 378.217 437.125 372.637 435.25 366.725C431.39 354.555 428.369 344.479 428.539 344.334C428.567 344.31 428.784 344.224 429.164 344.084C429.114 343.859 429.095 343.733 429.111 343.718C429.331 343.497 439.872 339.852 452.536 335.617C468.473 330.287 475.536 327.56 475.479 326.757C475.434 326.121 469.191 316.928 461.605 306.329C454.019 295.73 447.925 286.729 448.061 286.326C448.198 285.922 457.014 279.169 467.652 271.319C478.291 263.47 487.102 256.683 487.232 256.237C487.362 255.792 478.43 248.8 467.383 240.701L447.296 225.975L461.635 205.942C469.521 194.924 475.974 185.564 475.974 185.142C475.974 184.777 468.068 181.845 457.568 178.283ZM442.116 256.31C442.116 358.928 358.928 442.116 256.31 442.116C153.692 442.116 70.5032 358.928 70.5032 256.31C70.5032 153.692 153.692 70.5032 256.31 70.5032C358.928 70.5032 442.116 153.692 442.116 256.31ZM433.67 256.31C433.67 354.263 354.263 433.67 256.31 433.67C158.356 433.67 78.9488 354.263 78.9488 256.31C78.9488 158.356 158.356 78.9488 256.31 78.9488C354.263 78.9488 433.67 158.356 433.67 256.31ZM132.113 172.527C150.507 145.478 169.874 125.167 188.98 111.03C192.584 108.364 191.407 108.709 183.07 112.767C156.176 125.857 136.007 142.879 117.998 172.21C100.882 200.086 97.4319 225.052 94.4516 252.594C94.4516 252.594 112.681 201.1 132.113 172.527ZM347.034 389.539C366.514 376.435 379.983 361.601 394.83 338.777C409.971 315.5 415.531 294.881 421.528 272.641L421.529 272.64C422.32 269.706 423.119 266.743 423.948 263.742C423.948 263.742 399.817 313.231 378.906 341.351C361.33 364.986 344.45 384.797 328.34 397.309C324.596 400.217 321.677 402.74 321.853 402.915C322.482 403.543 340.235 394.113 347.034 389.539Z" fill="white"/>
<defs>
<radialGradient id="paint0_radial" cx="0" cy="0" r="1" gradientUnits="userSpaceOnUse" gradientTransform="translate(256.361 256.361) rotate(90) scale(177.361 177.361)">
<stop offset="0.921875" stop-color="#FFEA00"/>
<stop offset="1" stop-color="#FFC93D"/>
</radialGradient>
</defs>
</svg>
