<svg width="128" height="128" viewBox="0 0 128 128" fill="none" xmlns="http://www.w3.org/2000/svg">
<path fill-rule="evenodd" clip-rule="evenodd" d="M64 128C99.3462 128 128 99.3462 128 64C128 28.6538 99.3462 0 64 0C28.6538 0 0 28.6538 0 64C0 99.3462 28.6538 128 64 128ZM71.7322 14.3116C71.65 14.2183 69.8892 11.8426 67.8191 9.03226C65.749 6.22188 64.0268 3.92258 63.9921 3.92258C63.9572 3.92258 62.1854 6.29304 60.0548 9.19022L56.1808 14.4578L55.6828 14.1317C55.4091 13.9522 53.0774 12.2977 50.5015 10.4549C47.9256 8.6121 45.7065 7.03629 45.5704 6.95312C45.3943 6.84536 44.7429 8.58901 43.3116 13.0009C42.088 16.7722 41.4714 18.5072 41.154 19.0224C40.9328 19.0226 38.1544 18.1996 34.8811 17.1631L28.8 15.2375L28.7961 15.3908L28.6825 15.3544L28.5792 21.8021C28.5262 25.1182 28.4339 27.9185 28.3669 28.3234L21.9163 28.4721L15.3424 28.6236L15.4263 28.8865C15.3867 28.8937 15.3663 28.9007 15.3663 28.9074C15.3663 29.0382 18.2796 38.3366 18.9674 40.4011L19.0986 40.795C19.1301 40.935 19.143 41.019 19.1352 41.039C19.0842 41.1693 16.2897 42.1893 12.9253 43.3056L6.80857 45.3351L7.26936 45.9895C7.38886 46.159 7.83503 46.7855 8.46764 47.6723C9.17818 48.6683 10.1238 49.9927 11.1058 51.3669C12.9625 53.9645 14.4051 56.1573 14.3116 56.2392C14.2183 56.3214 11.8427 58.0822 9.03226 60.1523C6.22182 62.2224 3.92258 63.9446 3.92258 63.9792C3.92258 64.0142 6.29304 65.786 9.19017 67.9165L14.4578 71.7906L14.1316 72.2885C13.9522 72.5623 12.2977 74.894 10.4549 77.4699C8.61215 80.0458 7.03629 82.2649 6.95307 82.401C6.88281 82.5157 7.59929 82.8325 9.32873 83.4356L8.8631 83.4391L14.0595 85.1893L19.1357 86.8989C19.1759 86.935 19.1947 86.966 19.1942 86.9928C19.1934 87.0357 19.1422 87.2343 19.05 87.5575L18.9674 87.8053C18.3583 89.6337 16.007 97.1251 15.4741 98.915L15.3544 99.2889L15.3678 99.2891C15.3668 99.2941 15.3663 99.2974 15.3663 99.2991C15.3663 99.3785 18.2637 99.5068 21.8051 99.584C25.3464 99.6614 28.296 99.7768 28.36 99.8406C28.4238 99.9044 28.5225 102.858 28.5792 106.404L28.6825 112.852L34.6696 110.935C37.9625 109.881 40.7997 109.016 40.9746 109.012C41.2105 109.008 41.8124 110.607 43.3052 115.207C44.75 119.659 45.3883 121.365 45.5679 121.255C45.7054 121.171 47.9256 119.594 50.5015 117.752C53.0774 115.909 55.4109 114.253 55.6871 114.072L56.1895 113.743L60.0674 119.028C63.7638 124.065 63.9615 124.295 64.2954 123.937C64.488 123.73 66.2048 121.424 68.1104 118.813C70.0159 116.201 71.645 113.987 71.7305 113.892C71.8162 113.798 74.2009 115.383 77.0299 117.416C79.8589 119.448 82.2777 121.176 82.4051 121.254C82.5043 121.316 82.847 120.526 83.4373 118.876L83.4391 119.108L85.1894 113.912L86.4245 110.245C86.697 109.525 86.8818 109.091 86.9324 109.071C87.0629 109.02 89.9096 109.851 93.2587 110.918L99.348 112.857L99.3652 112.112C99.4386 111.139 99.5258 108.836 99.584 106.166C99.6537 102.977 99.7542 100.267 99.8202 99.7135L101.431 99.6887C102.41 99.6734 105.354 99.6038 107.973 99.5339L112.734 99.4064L112.697 99.2914L112.852 99.2889L110.935 93.3018C109.881 90.0089 109.016 87.1717 109.012 86.9968V86.9949C109.399 86.7775 111.534 85.9909 114.063 85.139L119.108 83.4391L118.892 83.4375C120.625 82.8332 121.327 82.5207 121.255 82.4034C121.171 82.2659 119.594 80.0458 117.752 77.4699C115.909 74.894 114.253 72.5605 114.072 72.2842L113.743 71.782L119.028 67.9039C124.065 64.2077 124.295 64.0099 123.937 63.676C123.73 63.4834 121.424 61.7665 118.813 59.861C116.201 57.9554 113.987 56.3263 113.892 56.2409C113.798 56.1552 115.383 53.7705 117.416 50.9414C119.448 48.1125 121.176 45.6936 121.254 45.5663C121.35 45.4115 119.373 44.6631 115.281 43.3054C111.917 42.1894 109.122 41.1693 109.071 41.039C109.02 40.9086 109.851 38.0618 110.918 34.7127L112.857 28.6234L106.287 28.4719L99.7161 28.3206L99.6887 26.5401C99.6734 25.5609 99.6038 22.6173 99.5338 19.9987L99.4065 15.2375L93.3254 17.1631C89.9809 18.2222 87.1531 19.0583 87.0416 19.0212C86.9299 18.9838 86.0738 16.6831 85.139 13.9084L83.4391 8.8631L83.4364 9.22006L82.6363 6.80857L81.9819 7.26935C81.622 7.52308 79.2022 9.2494 76.6044 11.1058C74.0069 12.9625 71.8141 14.4051 71.7322 14.3116Z" fill="#E20613"/>
<path fill-rule="evenodd" clip-rule="evenodd" d="M114.093 44.272C113.285 44.1499 112.398 43.8633 110.423 43.2084C108.492 42.5685 106.88 42.0172 106.84 41.9834C106.8 41.9495 107.57 39.3841 108.55 36.2824C109.53 33.1809 110.382 30.4807 110.443 30.2819C110.547 29.9433 110.159 29.9206 104.275 29.9206H97.996L97.8615 27.2883C97.7878 25.8407 97.727 22.9505 97.7265 20.8663C97.7259 17.7837 97.6741 17.0962 97.449 17.1825C96.7523 17.4499 85.9691 20.8367 85.8145 20.8367C85.7186 20.8367 84.7611 18.1889 83.687 14.9529C82.6128 11.7168 81.646 9.06898 81.5387 9.06898C81.4311 9.06898 79.0912 10.6869 76.3387 12.6643L71.3342 16.2599L67.6525 11.2262C65.6276 8.45769 63.8838 6.21848 63.7772 6.25034C63.6706 6.28189 61.9728 8.48511 60.0045 11.1465C58.036 13.8077 56.3404 16.0142 56.2368 16.0497C56.1329 16.0852 53.8863 14.562 51.2441 12.6648C48.6017 10.7675 46.3068 9.20568 46.1441 9.19368C45.9357 9.17856 45.2816 10.8672 43.9234 14.9285L43.7742 15.3736C43.6257 15.8447 43.4402 16.4074 43.2085 17.1061C42.5685 19.0366 42.0173 20.6486 41.9834 20.6884C41.9827 20.6892 41.981 20.6898 41.9782 20.6899C41.9712 20.6902 41.9576 20.6884 41.9375 20.6847C41.9112 20.7508 41.8942 20.7885 41.8875 20.7952C41.8057 20.877 31.8785 17.8358 30.0823 17.1793C29.9334 17.5214 29.9206 18.844 29.9206 23.2541V29.5328L29.7022 29.544L29.6999 29.8174L23.3515 29.8719C20.4547 29.8969 17.9968 29.9331 17.2451 29.9599C17.1804 29.993 17.1645 30.0325 17.1826 30.0797C17.4499 30.7764 20.8368 41.5597 20.8368 41.7143C20.8368 41.7223 20.8182 41.7364 20.7823 41.7561L20.8601 41.998L17.3316 43.176C15.4711 43.7971 14.5766 44.0908 13.7993 44.2285C11.1105 45.1389 9.06903 45.8959 9.06903 45.9902C9.06903 46.0977 10.687 48.4376 12.6644 51.19L16.26 56.1946L11.2262 59.8762C8.45774 61.9011 6.21858 63.645 6.25033 63.7515C6.28194 63.8581 8.48521 65.5559 11.1466 67.5242C13.8077 69.4928 16.0143 71.1883 16.0498 71.292C16.0853 71.3958 14.5621 73.6425 12.6648 76.2846C10.7675 78.9269 9.20573 81.2219 9.19373 81.3846C9.17866 81.5931 10.8672 82.2471 14.9286 83.6054C18.0945 84.6642 20.7344 85.5803 20.7953 85.6412C20.8775 85.7233 17.8152 95.7179 17.1727 97.4644C17.0996 97.6628 18.4981 97.7318 23.4482 97.7741L29.8174 97.8289L29.8719 104.177C29.9007 107.508 29.9443 110.259 29.9714 110.502C29.9724 110.506 29.9735 110.509 29.9745 110.511C29.9755 110.514 29.9765 110.517 29.9775 110.519C30.0721 110.494 32.7605 109.635 36.011 108.591L41.9981 106.669L43.1761 110.197C43.8043 112.079 44.0976 112.973 44.2332 113.756C45.3627 117.093 45.9537 118.584 46.1382 118.571C46.2974 118.56 48.5955 116.999 51.2451 115.103C53.895 113.206 56.1453 111.682 56.2461 111.717C56.347 111.751 58.0352 113.955 59.9977 116.614C61.96 119.274 63.6568 121.477 63.7683 121.509C63.8796 121.542 65.6274 119.309 67.6523 116.547L71.3338 111.525L76.342 115.11C79.0965 117.082 81.4364 118.695 81.5419 118.695C81.6475 118.695 82.6128 116.047 83.687 112.811C84.7611 109.575 85.715 106.927 85.8064 106.927C85.8094 106.927 85.8175 106.929 85.8304 106.932C85.8391 106.934 85.85 106.937 85.863 106.94C85.9077 106.855 85.9401 106.81 85.9578 106.81C86.1355 106.81 96.6501 110.116 97.5125 110.443C97.6293 109.948 97.7105 108.081 97.7781 104.444C97.8157 102.433 97.8708 100.615 97.9253 99.4425C97.9329 99.2576 97.9409 99.0994 97.9492 98.9715C97.9791 98.4319 98.0081 98.1109 98.0331 98.0859C98.0349 98.0842 98.038 98.0824 98.0426 98.0807C98.0466 98.0791 98.0517 98.0776 98.0578 98.076L98.1058 97.7256H104.397C108.403 97.7256 110.033 97.6894 110.469 97.5678L110.406 97.3623C110.367 97.2356 110.123 96.4625 109.764 95.3276C109.425 94.2556 108.983 92.8605 108.514 91.3825C107.549 88.3399 106.794 85.8211 106.836 85.7847C106.843 85.7788 106.897 85.7572 106.992 85.7222C106.98 85.666 106.975 85.6346 106.979 85.6307C107.034 85.5755 109.669 84.6642 112.835 83.6054C116.82 82.2729 118.585 81.5913 118.571 81.3906C118.56 81.2314 116.999 78.9332 115.103 76.2836C113.206 73.6338 111.682 71.3834 111.717 71.2827C111.751 71.1818 113.955 69.4936 116.614 67.5311C119.274 65.5688 121.477 63.8719 121.509 63.7604C121.542 63.6491 119.309 61.9013 116.547 59.8764L111.525 56.195L115.11 51.1867C117.082 48.4322 118.695 46.0923 118.695 45.9868C118.695 45.8956 116.718 45.1625 114.093 44.272ZM110.23 63.7787C110.23 89.4332 89.4332 110.23 63.7787 110.23C38.1242 110.23 17.3271 89.4332 17.3271 63.7787C17.3271 38.1241 38.1242 17.3271 63.7787 17.3271C89.4332 17.3271 110.23 38.1241 110.23 63.7787Z" fill="#FFEA00"/>
<path fill-rule="evenodd" clip-rule="evenodd" d="M108.43 64.0902C108.43 88.5786 88.5786 108.43 64.0902 108.43C39.6018 108.43 19.75 88.5786 19.75 64.0902C19.75 39.6018 39.6018 19.75 64.0902 19.75C88.5786 19.75 108.43 39.6018 108.43 64.0902ZM33.0409 43.1445C37.6396 36.3824 42.4814 31.3046 47.2578 27.7704C48.1588 27.1037 47.8646 27.19 45.7802 28.2045C39.0567 31.477 34.0146 35.7325 29.5123 43.0653C25.2334 50.0343 24.3708 56.2758 23.6257 63.1612C23.6257 63.1612 28.183 50.2877 33.0409 43.1445ZM86.7712 97.3976C91.6412 94.1217 95.0085 90.4131 98.7202 84.7071C102.505 78.8879 103.896 73.733 105.395 68.1731L105.395 68.1729C105.593 67.4392 105.793 66.6985 106 65.9483C106 65.9483 99.9671 78.3207 94.7392 85.3505C90.3452 91.2592 86.1252 96.212 82.0978 99.3401C81.1619 100.067 80.4321 100.698 80.4761 100.742C80.6332 100.899 85.0715 98.5409 86.7712 97.3976Z" fill="url(#paint0_radial)"/>
<path fill-rule="evenodd" clip-rule="evenodd" d="M71.8096 14.389C71.7274 14.2958 69.9666 11.9201 67.8965 9.10968C65.8264 6.29929 64.1042 4 64.0695 4C64.0346 4 62.2629 6.37046 60.1323 9.26764L56.2582 14.5352L55.7602 14.2091C55.4865 14.0296 53.1548 12.3751 50.5789 10.5324C48.003 8.68952 45.7839 7.11371 45.6478 7.03054C45.4717 6.92278 44.8204 8.66643 43.389 13.0783C42.1654 16.8496 41.5488 18.5846 41.2314 19.0998C41.0102 19.1 38.2318 18.277 34.9585 17.2405L28.8774 15.3149L28.8735 15.4682L28.7599 15.4319L28.6567 21.8795C28.6036 25.1957 28.5113 27.996 28.4444 28.4008L21.9937 28.5495L15.4199 28.701L15.5037 28.9639C15.4642 28.9712 15.4437 28.9781 15.4437 28.9848C15.4437 29.1156 18.357 38.414 19.0449 40.4785L19.1761 40.8724C19.2075 41.0124 19.2205 41.0964 19.2126 41.1164C19.1616 41.2467 16.3671 42.2667 13.0027 43.3831L6.88599 45.4125L7.34677 46.0669C7.46628 46.2364 7.91245 46.8629 8.54506 47.7497C9.25559 48.7458 10.2012 50.0702 11.1833 51.4444C13.0399 54.0419 14.4826 56.2347 14.3891 56.3166C14.2958 56.3988 11.9201 58.1596 9.10968 60.2297C6.29924 62.2998 4 64.022 4 64.0567C4 64.0916 6.37046 65.8634 9.26759 67.994L14.5352 71.868L14.209 72.3659C14.0296 72.6397 12.3751 74.9714 10.5324 77.5473C8.68957 80.1232 7.11371 82.3423 7.03049 82.4784C6.96023 82.5931 7.67671 82.9099 9.40615 83.513L8.94052 83.5165L14.1369 85.2667L19.2132 86.9763C19.2533 87.0124 19.2721 87.0434 19.2716 87.0703C19.2708 87.1131 19.2196 87.3117 19.1274 87.6349L19.0449 87.8828C18.4357 89.7111 16.0844 97.2025 15.5516 98.9924L15.4319 99.3663L15.4453 99.3665C15.4443 99.3715 15.4437 99.3748 15.4437 99.3765C15.4437 99.4559 18.3411 99.5842 21.8826 99.6614C25.4238 99.7388 28.3734 99.8542 28.4374 99.918C28.5012 99.9819 28.5999 102.935 28.6567 106.482L28.7599 112.929L34.747 111.012C38.0399 109.958 40.8771 109.093 41.052 109.09C41.288 109.085 41.8898 110.685 43.3827 115.285C44.8274 119.736 45.4657 121.442 45.6454 121.332C45.7829 121.248 48.003 119.672 50.5789 117.829C53.1548 115.986 55.4884 114.33 55.7646 114.149L56.2669 113.82L60.1449 119.105C63.8412 124.143 64.039 124.373 64.3728 124.014C64.5654 123.808 66.2823 121.502 68.1878 118.89C70.0933 116.279 71.7224 114.065 71.8079 113.97C71.8936 113.875 74.2783 115.461 77.1074 117.493C79.9363 119.526 82.3551 121.253 82.4825 121.332C82.5817 121.393 82.9244 120.604 83.5147 118.953L83.5165 119.186L85.2668 113.989L86.5019 110.322C86.7744 109.602 86.9592 109.169 87.0098 109.149C87.1403 109.097 89.987 109.928 93.3361 110.995L99.4254 112.935L99.4426 112.189C99.516 111.217 99.6032 108.913 99.6614 106.244C99.7311 103.054 99.8316 100.344 99.8976 99.7909L101.509 99.7661C102.488 99.7508 105.431 99.6812 108.05 99.6113L112.811 99.4839L112.775 99.3689L112.929 99.3663L111.013 93.3792C109.958 90.0863 109.093 87.2491 109.09 87.0742V87.0723C109.477 86.8549 111.612 86.0684 114.14 85.2164L119.186 83.5165L118.97 83.5149C120.703 82.9106 121.404 82.5981 121.332 82.4809C121.248 82.3433 119.672 80.1232 117.829 77.5473C115.986 74.9714 114.33 72.6379 114.149 72.3616L113.82 71.8594L119.105 67.9813C124.143 64.2851 124.373 64.0873 124.014 63.7534C123.808 63.5608 121.502 61.844 118.89 59.9384C116.279 58.0329 114.065 56.4037 113.97 56.3183C113.875 56.2327 115.461 53.8479 117.493 51.0188C119.526 48.1899 121.253 45.7711 121.332 45.6437C121.428 45.4889 119.45 44.7405 115.358 43.3829C111.994 42.2668 109.2 41.2467 109.149 41.1164C109.097 40.986 109.928 38.1392 110.995 34.7901L112.935 28.7008L106.364 28.5493L99.7935 28.398L99.7661 26.6175C99.7508 25.6383 99.6813 22.6948 99.6112 20.0761L99.4839 15.3149L93.4028 17.2405C90.0583 18.2996 87.2305 19.1357 87.1191 19.0986C87.0074 19.0612 86.1512 16.7605 85.2164 13.9858L83.5165 8.94052L83.5138 9.29748L82.7137 6.88599L82.0593 7.34677C81.6994 7.6005 79.2796 9.32681 76.6818 11.1833C74.0843 13.0399 71.8915 14.4826 71.8096 14.389ZM114.392 44.5708C113.584 44.4487 112.697 44.1621 110.721 43.5072C108.791 42.8672 107.179 42.3159 107.139 42.2822C107.099 42.2483 107.868 39.6829 108.849 36.5812C109.829 33.4796 110.68 30.7794 110.741 30.5806C110.845 30.242 110.458 30.2194 104.573 30.2194H98.2947L98.1602 27.5871C98.0865 26.1394 98.0257 23.2493 98.0252 21.165C98.0246 18.0825 97.9728 17.395 97.7477 17.4812C97.051 17.7487 86.2678 21.1355 86.1132 21.1355C86.0173 21.1355 85.0598 18.4877 83.9857 15.2516C82.9115 12.0155 81.9447 9.36774 81.8373 9.36774C81.7298 9.36774 79.3899 10.9857 76.6374 12.9631L71.6329 16.5587L67.9512 11.525C65.9263 8.75645 64.1825 6.51724 64.0759 6.54909C63.9694 6.58065 62.2715 8.78387 60.3032 11.4453C58.3347 14.1065 56.6391 16.313 56.5355 16.3485C56.4316 16.384 54.185 14.8608 51.5428 12.9635C48.9005 11.0662 46.6055 9.50444 46.4428 9.49244C46.2344 9.47732 45.5803 11.1659 44.2221 15.2272L44.0729 15.6724C43.9244 16.1434 43.7389 16.7061 43.5072 17.4048C42.8672 19.3354 42.316 20.9474 42.2821 20.9872C42.2814 20.988 42.2797 20.9885 42.277 20.9886C42.2699 20.9889 42.2563 20.9872 42.2362 20.9835C42.2099 21.0496 42.1929 21.0873 42.1862 21.094C42.1044 21.1758 32.1772 18.1346 30.381 17.478C30.2321 17.8202 30.2194 19.1427 30.2194 23.5528V29.8316L30.001 29.8427L29.9986 30.1161L23.6502 30.1707C20.7534 30.1957 18.2955 30.2319 17.5439 30.2587C17.4791 30.2917 17.4632 30.3312 17.4813 30.3784C17.7486 31.0752 21.1355 41.8585 21.1355 42.0131C21.1355 42.0211 21.1169 42.0352 21.081 42.0548L21.1588 42.2968L17.6303 43.4748C15.7698 44.0959 14.8753 44.3895 14.098 44.5272C11.4092 45.4377 9.36774 46.1947 9.36774 46.2889C9.36774 46.3965 10.9857 48.7364 12.9631 51.4887L16.5587 56.4933L11.5249 60.175C8.75645 62.1999 6.51729 63.9437 6.54904 64.0503C6.58064 64.1569 8.78392 65.8546 11.4453 67.823C14.1065 69.7915 16.313 71.4871 16.3485 71.5907C16.384 71.6946 14.8608 73.9412 12.9635 76.5834C11.0662 79.2257 9.50444 81.5207 9.49244 81.6834C9.47737 81.8918 11.1659 82.5459 15.2273 83.9041C18.3932 84.963 21.0331 85.879 21.094 85.9399C21.1762 86.0221 18.1139 96.0166 17.4714 97.7632C17.3983 97.9616 18.7968 98.0305 23.7469 98.0729L30.1161 98.1276L30.1706 104.476C30.1994 107.807 30.243 110.558 30.2701 110.801C30.2711 110.804 30.2722 110.807 30.2732 110.81C30.2742 110.813 30.2752 110.815 30.2762 110.818C30.3708 110.793 33.0592 109.934 36.3097 108.89L42.2968 106.967L43.4748 110.496C44.103 112.378 44.3963 113.272 44.532 114.055C45.6614 117.392 46.2524 118.883 46.4369 118.87C46.5961 118.859 48.8943 117.298 51.5438 115.401C54.1937 113.505 56.444 111.981 56.5448 112.015C56.6457 112.049 58.3339 114.253 60.2964 116.913C62.2587 119.573 63.9555 121.776 64.067 121.808C64.1783 121.841 65.9261 119.608 67.951 116.846L71.6325 111.824L76.6407 115.409C79.3952 117.38 81.7351 118.994 81.8406 118.994C81.9462 118.994 82.9115 116.346 83.9857 113.11C85.0598 109.874 86.0137 107.226 86.1051 107.226C86.1081 107.226 86.1162 107.227 86.1291 107.231C86.1378 107.233 86.1487 107.235 86.1617 107.239C86.2064 107.154 86.2388 107.108 86.2565 107.108C86.4342 107.108 96.9488 110.415 97.8112 110.742C97.928 110.246 98.0092 108.38 98.0768 104.743C98.1144 102.732 98.1694 100.913 98.224 99.7412C98.2316 99.5563 98.2396 99.3982 98.2479 99.2703C98.2778 98.7306 98.3068 98.4097 98.3318 98.3847C98.3335 98.3829 98.3367 98.3812 98.3413 98.3794C98.3453 98.3779 98.3504 98.3764 98.3565 98.3748L98.4045 98.0244H104.695C108.702 98.0244 110.332 97.9882 110.767 97.8665L110.704 97.6611C110.666 97.5344 110.422 96.7613 110.062 95.6264C109.723 94.5543 109.281 93.1593 108.812 91.6812C107.847 88.6387 107.092 86.1199 107.135 86.0835C107.142 86.0775 107.196 86.0559 107.291 86.021C107.278 85.9647 107.274 85.9334 107.278 85.9294C107.333 85.8743 109.968 84.963 113.134 83.9041C117.118 82.5717 118.884 81.89 118.87 81.6893C118.859 81.5301 117.298 79.2319 115.401 76.5824C113.505 73.9326 111.981 71.6822 112.015 71.5815C112.05 71.4805 114.253 69.7923 116.913 67.8298C119.573 65.8675 121.776 64.1707 121.808 64.0592C121.841 63.9479 119.608 62.2001 116.846 60.1752L111.824 56.4937L115.409 51.4855C117.38 48.7309 118.994 46.391 118.994 46.2856C118.994 46.1944 117.017 45.4613 114.392 44.5708ZM110.529 64.0774C110.529 89.7319 89.7319 110.529 64.0774 110.529C38.4229 110.529 17.6258 89.7319 17.6258 64.0774C17.6258 38.4229 38.4229 17.6258 64.0774 17.6258C89.7319 17.6258 110.529 38.4229 110.529 64.0774ZM108.418 64.0774C108.418 88.5658 88.5658 108.418 64.0774 108.418C39.589 108.418 19.7372 88.5658 19.7372 64.0774C19.7372 39.589 39.589 19.7372 64.0774 19.7372C88.5658 19.7372 108.418 39.589 108.418 64.0774ZM33.0281 43.1317C37.6268 36.3696 42.4685 31.2918 47.245 27.7576C48.146 27.0909 47.8518 27.1772 45.7674 28.1917C39.0439 31.4642 34.0018 35.7197 29.4995 43.0525C25.2206 50.0215 24.358 56.263 23.6129 63.1484C23.6129 63.1484 28.1702 50.2749 33.0281 43.1317ZM86.7584 97.3848C91.6284 94.1089 94.9956 90.4003 98.7074 84.6943C102.493 78.8751 103.883 73.7202 105.382 68.1603L105.382 68.1601C105.58 67.4264 105.78 66.6857 105.987 65.9355C105.987 65.9355 99.9543 78.3079 94.7264 85.3377C90.3324 91.2464 86.1124 96.1992 82.0849 99.3273C81.1491 100.054 80.4193 100.685 80.4633 100.729C80.6204 100.886 85.0587 98.5281 86.7584 97.3848Z" fill="white"/>
<defs>
<radialGradient id="paint0_radial" cx="0" cy="0" r="1" gradientUnits="userSpaceOnUse" gradientTransform="translate(64.0902 64.0902) rotate(90) scale(44.3402)">
<stop offset="0.921875" stop-color="#FFEA00"/>
<stop offset="1" stop-color="#FFC93D"/>
</radialGradient>
</defs>
</svg>
