<svg width="128" height="128" viewBox="0 0 128 128" fill="none" xmlns="http://www.w3.org/2000/svg">
<circle cx="64" cy="64" r="64" fill="white"/>
<circle cx="64.0001" cy="64" r="58.88" fill="#FF0613"/>
<path d="M64 12.8L72.5075 32.2496L89.6001 19.6595L87.2429 40.7571L108.341 38.4L95.7504 55.4925L115.2 64L95.7504 72.5075L108.341 89.6L87.2429 87.2429L89.6001 108.34L72.5075 95.7504L64 115.2L55.4926 95.7504L38.4 108.34L40.7572 87.2429L19.6595 89.6L32.2497 72.5075L12.8 64L32.2497 55.4925L19.6595 38.4L40.7572 40.7571L38.4 19.6595L55.4926 32.2496L64 12.8Z" fill="#FFEA01" stroke="white"/>
<g filter="url(#filter0_ii_515_33)">
<circle cx="64" cy="64" r="30.72" fill="#FFEA01"/>
</g>
<circle cx="64" cy="64" r="29.72" stroke="white" stroke-width="2"/>
<defs>
<filter id="filter0_ii_515_33" x="33.28" y="29.28" width="61.4399" height="69.44" filterUnits="userSpaceOnUse" color-interpolation-filters="sRGB">
<feFlood flood-opacity="0" result="BackgroundImageFix"/>
<feBlend mode="normal" in="SourceGraphic" in2="BackgroundImageFix" result="shape"/>
<feColorMatrix in="SourceAlpha" type="matrix" values="0 0 0 0 0 0 0 0 0 0 0 0 0 0 0 0 0 0 127 0" result="hardAlpha"/>
<feOffset dy="4"/>
<feGaussianBlur stdDeviation="2"/>
<feComposite in2="hardAlpha" operator="arithmetic" k2="-1" k3="1"/>
<feColorMatrix type="matrix" values="0 0 0 0 0.491667 0 0 0 0 0.387106 0 0 0 0 0.0163889 0 0 0 0.75 0"/>
<feBlend mode="normal" in2="shape" result="effect1_innerShadow_515_33"/>
<feColorMatrix in="SourceAlpha" type="matrix" values="0 0 0 0 0 0 0 0 0 0 0 0 0 0 0 0 0 0 127 0" result="hardAlpha"/>
<feOffset dy="-4"/>
<feGaussianBlur stdDeviation="2"/>
<feComposite in2="hardAlpha" operator="arithmetic" k2="-1" k3="1"/>
<feColorMatrix type="matrix" values="0 0 0 0 0.490196 0 0 0 0 0.388235 0 0 0 0 0.0156863 0 0 0 0.75 0"/>
<feBlend mode="normal" in2="effect1_innerShadow_515_33" result="effect2_innerShadow_515_33"/>
</filter>
</defs>
</svg>
